<?xml version="1.0" encoding="UTF-8" standalone="no"?>
<!-- Created with Inkscape (http://www.inkscape.org/) -->
<svg
   xmlns:svg="http://www.w3.org/2000/svg"
   xmlns="http://www.w3.org/2000/svg"
   xmlns:xlink="http://www.w3.org/1999/xlink"
   version="1.0"
   width="708.66138"
   height="885.82672"
   id="svg2">
  <defs
     id="defs4">
    <marker
       refX="0"
       refY="0"
       orient="auto"
       style="overflow:visible"
       id="Arrow2Mend">
      <path
         d="M 8.7185878,4.0337352 L -2.2072895,0.016013256 L 8.7185884,-4.0017078 C 6.97309,-1.6296469 6.9831476,1.6157441 8.7185878,4.0337352 z "
         transform="scale(-0.6,-0.6)"
         style="font-size:12px;fill-rule:evenodd;stroke-width:0.625;stroke-linejoin:round"
         id="path8885" />
    </marker>
    <marker
       refX="0"
       refY="0"
       orient="auto"
       style="overflow:visible"
       id="Arrow2Lend">
      <path
         d="M 8.7185878,4.0337352 L -2.2072895,0.016013256 L 8.7185884,-4.0017078 C 6.97309,-1.6296469 6.9831476,1.6157441 8.7185878,4.0337352 z "
         transform="matrix(-1.1,0,0,-1.1,-1.1,0)"
         style="font-size:12px;fill-rule:evenodd;stroke-width:0.625;stroke-linejoin:round"
         id="path8891" />
    </marker>
    <marker
       refX="0"
       refY="0"
       orient="auto"
       style="overflow:visible"
       id="Arrow1Lend">
      <path
         d="M 0,0 L 5,-5 L -12.5,0 L 5,5 L 0,0 z "
         transform="matrix(-0.8,0,0,-0.8,-10,0)"
         style="fill-rule:evenodd;stroke:#000000;stroke-width:1pt;marker-start:none"
         id="path8909" />
    </marker>
    <marker
       refX="0"
       refY="0"
       orient="auto"
       style="overflow:visible"
       id="TriangleOutL">
      <path
         d="M 5.77,0 L -2.88,5 L -2.88,-5 L 5.77,0 z "
         transform="scale(0.8,0.8)"
         style="fill-rule:evenodd;stroke:#000000;stroke-width:1pt;marker-start:none"
         id="path3256" />
    </marker>
    <marker
       refX="0"
       refY="0"
       orient="auto"
       style="overflow:visible"
       id="TriangleOutM">
      <path
         d="M 5.77,0 L -2.88,5 L -2.88,-5 L 5.77,0 z "
         transform="scale(0.4,0.4)"
         style="fill-rule:evenodd;stroke:#000000;stroke-width:1pt;marker-start:none"
         id="path15947" />
    </marker>
  </defs>
  <g
     transform="translate(82.381039,-624.33885)"
     id="layer1">
    <g
       transform="translate(7.2717853,4)"
       id="g45460">
      <g
         id="g21904">
        <path
           d="M 204.62025,669.86462 C 204.62025,669.86462 204.64037,663.52998 208.32415,659.17498 C 212.02804,654.79619 217.70687,653.63526 217.70687,653.63526"
           style="fill:none;fill-rule:evenodd;stroke:#000000;stroke-width:0.85799193px;stroke-linecap:butt;stroke-linejoin:miter;stroke-opacity:1"
           id="path21902" />
        <rect
           width="518.67462"
           height="21.112743"
           x="95.626068"
           y="700.58582"
           style="fill:#000000;fill-opacity:0;fill-rule:evenodd;stroke:#000000;stroke-width:0.87852323px;stroke-linecap:butt;stroke-linejoin:miter;stroke-opacity:1"
           id="rect21844" />
        <rect
           width="86.763885"
           height="30.787197"
           rx="15.393599"
           ry="15.393599"
           x="159.15288"
           y="667.06055"
           style="fill:#00cc00;fill-opacity:0.87974686"
           id="rect21846" />
        <rect
           width="154.1319"
           height="20.791681"
           ry="0"
           x="128.88161"
           y="700.74976"
           style="fill:#00cc00;fill-opacity:0.43999999;stroke:#000000;stroke-width:0.98861098;stroke-linejoin:miter;stroke-miterlimit:4;stroke-dasharray:2.96583302, 0.98861101;stroke-dashoffset:0;stroke-opacity:1"
           id="rect21854" />
        <text
           x="179.84062"
           y="708.8963"
           transform="scale(0.9854081,1.014808)"
           style="font-size:20px;font-style:normal;font-weight:normal;fill:#000000;fill-opacity:1;stroke:none;stroke-width:1px;stroke-linecap:butt;stroke-linejoin:miter;stroke-opacity:1;font-family:Bitstream Vera Sans"
           id="text21856"
           xml:space="preserve"><tspan
             x="179.84062"
             y="708.8963"
             id="tspan21858">UAS</tspan></text>
        <text
           x="173.91127"
           y="687.76782"
           style="font-size:14px;font-style:normal;font-weight:normal;fill:#000000;fill-opacity:1;stroke:none;stroke-width:1px;stroke-linecap:butt;stroke-linejoin:miter;stroke-opacity:1;font-family:Bitstream Vera Sans"
           id="text21860"
           xml:space="preserve"><tspan
             x="173.91127"
             y="687.76782"
             id="tspan21862">Gal4 BD</tspan></text>
        <g
           transform="translate(-60.174965,40.880497)"
           id="g21896">
          <path
             d="M 329.68118,775.5524 A 17.935373,16.945835 0 1 1 329.68268,775.53759 L 311.82809,773.93097 z"
             transform="translate(-21.80655,-171.52571)"
             style="fill:#ef34da;fill-opacity:0.62068936;stroke:#0000ff;stroke-width:4;stroke-miterlimit:4;stroke-dasharray:none;stroke-dashoffset:0;stroke-opacity:0"
             id="path21850" />
          <text
             x="290.14529"
             y="600.79724"
             style="font-size:12px;font-style:normal;font-weight:normal;text-align:center;text-anchor:middle;fill:#000000;fill-opacity:1;stroke:none;stroke-width:1px;stroke-linecap:butt;stroke-linejoin:miter;stroke-opacity:1;font-family:Bitstream Vera Sans"
             id="text21872"
             xml:space="preserve"><tspan
               x="290.14529"
               y="600.79724"
               id="tspan21874">Gal4</tspan><tspan
               x="290.14529"
               y="615.79724"
               id="tspan21876">AD</tspan></text>
        </g>
        <rect
           width="221.11389"
           height="20.601622"
           ry="0"
           x="363.49762"
           y="700.84143"
           style="fill:#9ff40f;fill-opacity:0.58620689;stroke:#000000;stroke-width:1.17867231;stroke-linejoin:miter;stroke-miterlimit:4;stroke-dasharray:3.53601687, 1.1786723;stroke-dashoffset:0;stroke-opacity:1"
           id="rect21878" />
        <text
           x="472.40094"
           y="716.25037"
           style="font-size:20px;font-style:normal;font-weight:normal;text-align:center;line-height:125%;text-anchor:middle;fill:#000000;fill-opacity:1;stroke:none;stroke-width:1px;stroke-linecap:butt;stroke-linejoin:miter;stroke-opacity:1;font-family:Bitstream Vera Sans"
           id="text21880"
           xml:space="preserve"><tspan
             x="472.40094"
             y="716.25037"
             id="tspan21882">Reporter gene (<tspan
   style="font-size:20px;font-style:oblique;font-variant:normal;font-weight:normal;font-stretch:normal;text-align:center;line-height:125%;writing-mode:lr-tb;text-anchor:middle;font-family:Bitstream Vera Sans"
   id="tspan21894"> LacZ</tspan>)</tspan></text>
        <g
           id="g4525">
          <path
             d="M 363,679.15625 L 363,679.65625 L 363,699.9375 L 364,699.9375 L 364,680.15625 L 434.875,680.15625 L 434.875,679.15625 L 363.5,679.15625 L 363,679.15625 z "
             style="fill:#000000;fill-opacity:1;fill-rule:evenodd;stroke:none;stroke-width:1px;stroke-linecap:butt;stroke-linejoin:miter;stroke-opacity:1"
             id="path21884" />
          <path
             d="M 439.48684,679.65533 L 432.56684,683.65533 L 432.56684,675.65533 L 439.48684,679.65533 z "
             style="fill-rule:evenodd;stroke:#000000;stroke-width:0.8pt;marker-start:none"
             id="path4531" />
        </g>
      </g>
      <g
         transform="matrix(0.8764024,0.4815796,-0.4815796,0.8764024,325.79161,97.860043)"
         id="g43840">
        <path
           d="M -106.35576 94.687286 A 126.64731 126.64731 0 1 1  -359.65038,94.687286 A 126.64731 126.64731 0 1 1  -106.35576 94.687286 z"
           transform="matrix(0.2569498,-0.1517827,0.1517827,0.2569498,-1.6905343,622.75726)"
           style="fill:none;fill-opacity:1;fill-rule:evenodd;stroke:#000000;stroke-width:1;stroke-linecap:butt;stroke-linejoin:round;stroke-miterlimit:4;stroke-dasharray:none;stroke-dashoffset:0;stroke-opacity:0.99994058"
           id="path42817" />
        <path
           d="M -134.34412 94.687286 A 98.658951 98.658951 0 1 1  -331.66202,94.687286 A 98.658951 98.658951 0 1 1  -134.34412 94.687286 z"
           transform="matrix(-0.133451,0.2231683,-0.2231683,-0.133451,-57.152033,747.08797)"
           style="fill:none;fill-opacity:1;fill-rule:evenodd;stroke:#000000;stroke-width:1;stroke-linecap:butt;stroke-linejoin:round;stroke-miterlimit:4;stroke-dasharray:none;stroke-dashoffset:0;stroke-opacity:0.99994058"
           id="path42819" />
        <path
           d="M -17.453122,683.84197 L -18.943556,684.32388 L -18.546972,685.55042 L -19.163959,685.74991 L -19.800897,683.78001 L -17.418434,683.00968 C -17.119031,683.2331 -16.859574,683.50227 -16.640061,683.81719 C -16.423024,684.13292 -16.250411,684.48901 -16.122223,684.88547 C -15.84181,685.75272 -15.875028,686.51338 -16.221879,687.16743 C -16.572007,687.81981 -17.19928,688.29222 -18.103702,688.58465 C -19.010595,688.87788 -19.795701,688.86215 -20.459021,688.53745 C -21.12561,688.21107 -21.599114,687.61426 -21.879533,686.74701 C -21.996499,686.38524 -22.062861,686.02764 -22.078619,685.67419 C -22.095165,685.31828 -22.061182,684.97476 -21.976669,684.64363 L -21.177559,684.38525 C -21.323218,684.73888 -21.405044,685.09103 -21.423039,685.4417 C -21.441021,685.79237 -21.394334,686.13991 -21.282976,686.48433 C -21.063447,687.16327 -20.708848,687.61241 -20.219178,687.83178 C -19.730299,688.04866 -19.110466,688.03573 -18.359678,687.79297 C -17.611362,687.55102 -17.10253,687.19901 -16.833181,686.73697 C -16.56463,686.27244 -16.540116,685.70071 -16.759641,685.02178 C -16.845365,684.75665 -16.944179,684.52722 -17.056081,684.3335 C -17.170458,684.14059 -17.302805,683.97674 -17.453122,683.84197 M -19.165249,679.2079 C -19.178056,679.78849 -19.120539,680.1922 -18.992701,680.41903 C -18.864858,680.64587 -18.640821,680.76281 -18.320588,680.76988 C -18.065441,680.77551 -17.860527,680.69667 -17.705847,680.53338 C -17.553712,680.36742 -17.474457,680.13995 -17.468082,679.85096 C -17.459294,679.45262 -17.592849,679.13058 -17.868747,678.88485 C -18.147189,678.63647 -18.520728,678.5071 -18.989366,678.49676 L -19.149483,678.49323 L -19.165249,679.2079 M -19.430433,677.76811 L -16.934947,677.82316 L -16.950799,678.54173 L -17.6147,678.52709 C -17.352758,678.69697 -17.1607,678.90569 -17.038526,679.15323 C -16.918956,679.40072 -16.863076,679.70151 -16.870888,680.05558 C -16.880767,680.50339 -17.013605,680.85732 -17.269403,681.11737 C -17.527746,681.37475 -17.867804,681.49879 -18.289577,681.48949 C -18.781643,681.47863 -19.149028,681.30642 -19.391732,680.97286 C -19.634374,680.6367 -19.748488,680.14188 -19.734074,679.48839 L -19.711846,678.48082 L -19.782142,678.47927 C -20.112787,678.47198 -20.370346,678.5757 -20.554817,678.79043 C -20.741828,679.00251 -20.839672,679.30511 -20.848349,679.69824 C -20.853859,679.94818 -20.829288,680.19227 -20.774638,680.43051 C -20.719979,680.66876 -20.635183,680.89855 -20.520249,681.11989 L -21.18415,681.10524 C -21.279882,680.84004 -21.349756,680.58323 -21.393771,680.3348 C -21.440381,680.08632 -21.461103,679.84492 -21.455938,679.6106 C -21.441977,678.97794 -21.26753,678.50902 -20.932597,678.20383 C -20.597655,677.89865 -20.096935,677.75341 -19.430433,677.76811 M -22.497248,674.85239 L -22.329755,674.15343 L -16.418969,675.56984 L -16.586462,676.2688 L -22.497248,674.85239 M -19.655036,669.71307 L -17.72887,672.86762 L -16.856282,671.0767 L -19.655036,669.71307 M -20.36376,669.59806 L -19.929177,668.70611 L -16.512379,670.37087 L -16.147946,669.6229 L -15.557995,669.91034 L -15.922429,670.65831 L -14.686341,671.26057 L -15.030244,671.9664 L -16.266331,671.36414 L -17.419516,673.73097 L -18.10428,673.39733 L -20.36376,669.59806 M -15.636349,668.18791 L -14.304725,666.55702 L -13.808501,666.96219 L -15.140124,668.59307 L -15.636349,668.18791 M -12.720486,664.66859 L -11.440992,666.37987 L -10.427367,665.622 C -10.087408,665.36782 -9.8883275,665.11004 -9.8301246,664.84867 C -9.7714004,664.58365 -9.8504158,664.30619 -10.067171,664.01628 C -10.28549,663.72429 -10.528492,663.57107 -10.796177,663.5566 C -11.063339,663.5385 -11.3669,663.65654 -11.70686,663.91072 L -12.720486,664.66859 M -14.156699,662.74771 L -13.1041,664.15552 L -12.168686,663.45613 C -11.86001,663.22534 -11.673472,662.99645 -11.609072,662.76946 C -11.544147,662.53883 -11.600571,662.30463 -11.778342,662.06686 C -11.954555,661.83119 -12.162451,661.71187 -12.40203,661.70891 C -12.639524,661.70439 -12.912608,661.81753 -13.221285,662.04832 L -14.156699,662.74771 M -15.176943,662.70088 L -13.56265,661.4939 C -13.080864,661.13369 -12.634767,660.95622 -12.224359,660.96151 C -11.81395,660.96682 -11.470738,661.15405 -11.194722,661.5232 C -10.981085,661.80894 -10.87785,662.08618 -10.885019,662.35491 C -10.89219,662.62365 -11.009491,662.87556 -11.236922,663.11064 C -10.87626,662.94503 -10.530888,662.90466 -10.200803,662.98952 C -9.8701969,663.07074 -9.5863778,663.26986 -9.3493453,663.58688 C -9.0374672,664.00401 -8.9383632,664.43228 -9.0520329,664.87169 C -9.1657091,665.31111 -9.4842944,665.72653 -10.00779,666.11793 L -11.684652,667.3717 L -15.176943,662.70088 M -7.7495231,658.98944 L -6.4357027,663.33012 L -5.5234491,663.054 C -4.7532709,662.82089 -4.2427766,662.47592 -3.9919648,662.01908 C -3.7386681,661.5615 -3.7259349,660.95634 -3.9537654,660.2036 C -4.1800946,659.45586 -4.525149,658.96308 -4.9889294,658.72525 C -5.4509772,658.48419 -6.06709,658.48021 -6.8372696,658.71332 L -7.7495231,658.98944 M -8.6925997,658.5974 L -7.141021,658.12777 C -6.0592794,657.80036 -5.1971454,657.78565 -4.5546163,658.08364 C -3.9128481,658.37915 -3.4471141,659.00545 -3.1574129,659.96257 C -2.8662122,660.92467 -2.906569,661.70825 -3.2784835,662.31329 C -3.6504069,662.91833 -4.374745,663.38381 -5.4514999,663.70972 L -7.0030787,664.17934 L -8.6925997,658.5974 M 5.8561192,662.80907 L 6.2139747,661.28409 L 4.9590026,660.98959 L 5.1071423,660.3583 L 7.1227036,660.83128 L 6.5506702,663.26897 C 6.2046553,663.40979 5.8401212,663.49276 5.4570668,663.5179 C 5.0745984,663.54049 4.6805429,663.5042 4.2748989,663.40901 C 3.3875425,663.20078 2.7535555,662.77916 2.3729358,662.14417 C 1.9954437,661.50723 1.9152744,660.72607 2.1324279,659.80068 C 2.3501741,658.87277 2.7694579,658.20881 3.3902806,657.80881 C 4.0142289,657.40687 4.7698808,657.31002 5.6572386,657.51824 C 6.027387,657.60511 6.3678164,657.73314 6.6785279,657.90235 C 6.9917634,658.07215 7.26827,658.27881 7.5080485,658.52231 L 7.3161809,659.33995 C 7.0887407,659.03246 6.8295787,658.78039 6.5386941,658.58373 C 6.2477984,658.38708 5.9261504,658.2474 5.573749,658.1647 C 4.8790737,658.00169 4.3112902,658.07309 3.8703969,658.37888 C 3.4320332,658.68528 3.1227196,659.22257 2.9424553,659.99077 C 2.7627822,660.75643 2.8011015,661.37396 3.0574134,661.84337 C 3.3162565,662.31337 3.7930145,662.62987 4.4876887,662.79289 C 4.7589618,662.85655 5.0064369,662.89055 5.2301147,662.89488 C 5.4543791,662.89669 5.663047,662.86808 5.8561192,662.80907 M 10.70668,663.7256 C 10.215425,663.41589 9.8396592,663.25749 9.5793808,663.2504 C 9.3190976,663.24331 9.1035448,663.37525 8.9327218,663.64621 C 8.7966159,663.86209 8.7587814,664.07836 8.8192184,664.29502 C 8.8832438,664.51086 9.0375194,664.69585 9.2820455,664.85001 C 9.61909,665.0625 9.9639438,665.11368 10.316608,665.00353 C 10.672858,664.89257 10.975978,664.63883 11.225969,664.24231 L 11.311381,664.10683 L 10.70668,663.7256 M 12.077713,664.23901 L 10.746529,666.35051 L 10.138523,665.96719 L 10.492672,665.40545 C 10.212225,665.54265 9.9344403,665.59995 9.6593162,665.57734 C 9.385576,665.55253 9.0989087,665.44569 8.7993133,665.25681 C 8.4204096,665.01793 8.185273,664.72192 8.0939027,664.36879 C 8.0061224,664.01483 8.074727,663.65942 8.2997168,663.30254 C 8.5622024,662.88619 8.898893,662.65977 9.3097895,662.62328 C 9.7228848,662.58818 10.2059,662.74493 10.758836,663.09352 L 11.611367,663.631 L 11.648865,663.57152 C 11.82524,663.29175 11.868822,663.01753 11.77961,662.74887 C 11.69398,662.47939 11.484847,662.2398 11.152211,662.03008 C 10.940726,661.89676 10.718782,661.79224 10.486377,661.71652 C 10.253965,661.64081 10.013295,661.59529 9.7643671,661.57996 L 10.118516,661.01821 C 10.395172,661.07257 10.651334,661.14479 10.887002,661.23487 C 11.124052,661.32275 11.341711,661.42919 11.539978,661.55418 C 12.075283,661.89167 12.387617,662.28252 12.476981,662.72675 C 12.566335,663.17097 12.433246,663.67506 12.077713,664.23901 M 16.162975,663.11762 L 16.675305,663.62172 L 12.41235,667.95425 L 11.90002,667.45015 L 16.162975,663.11762 M 19.099165,668.215 L 15.403078,668.23155 L 16.484358,669.90476 L 19.099165,668.215 M 19.56422,667.66797 L 20.102739,668.50129 L 16.910509,670.56421 L 17.362102,671.26302 L 16.810926,671.61921 L 16.359333,670.92039 L 15.204487,671.66669 L 14.778335,671.00724 L 15.933181,670.26095 L 14.504196,668.04968 L 15.143955,667.63625 L 19.56422,667.66797 M 18.331127,672.44653 L 19.034733,674.43095 L 18.430938,674.64503 L 17.727332,672.66061 L 18.331127,672.44653 M 22.2241,677.82335 L 19.234426,677.02898 L 19.434859,679.16412 L 22.2241,677.82335 M 22.956421,677.30733 L 23.040026,678.19795 L 17.441258,680.95595 L 17.364589,680.13923 L 18.804483,679.47047 L 18.558778,676.85308 L 17.019581,676.46398 L 16.941817,675.63559 L 22.956421,677.30733 M 22.105718,684.06802 L 17.716938,682.9251 L 17.476739,683.84747 C 17.273948,684.62618 17.302037,685.24166 17.561005,685.69392 C 17.819316,686.14869 18.329009,686.47518 19.090084,686.67338 C 19.846116,686.87026 20.446533,686.83287 20.891336,686.5612 C 21.337997,686.2927 21.662724,685.76909 21.865519,684.99038 L 22.105718,684.06802 M 22.93208,683.46784 L 22.523545,685.03661 C 22.238714,686.13033 21.801619,686.8736 21.212257,687.2664 C 20.625408,687.65984 19.848124,687.73056 18.880402,687.47856 C 17.907638,687.22523 17.260126,686.78212 16.937867,686.14924 C 16.615608,685.51634 16.596235,684.65555 16.879747,683.56687 L 17.288282,681.9981 L 22.93208,683.46784"
           transform="matrix(1.3253607,-0.7829031,0.7829031,1.3253607,-579.68078,-218.55501)"
           style="font-size:8px;font-style:normal;font-variant:normal;font-weight:normal;font-stretch:normal;text-align:start;line-height:100%;writing-mode:lr-tb;text-anchor:start;fill:#000000;fill-opacity:1;stroke:none;stroke-width:1px;stroke-linecap:butt;stroke-linejoin:miter;stroke-opacity:1;font-family:Bitstream Vera Sans"
           id="text42821" />
        <path
           d="M -65.817024,715.35371 L -65.817024,715.35371 L -59.13569,705.32563"
           style="fill:none;fill-opacity:1;fill-rule:evenodd;stroke:#000000;stroke-width:0.30000001;stroke-linecap:butt;stroke-linejoin:miter;stroke-miterlimit:4;stroke-dasharray:none;stroke-opacity:1"
           id="path42825" />
        <path
           d="M -67.528637,650.68604 L -61.051486,660.90235"
           style="fill:none;fill-rule:evenodd;stroke:#000000;stroke-width:0.30000001;stroke-linecap:butt;stroke-linejoin:miter;stroke-miterlimit:4;stroke-dasharray:none;stroke-opacity:1"
           id="path42827" />
        <path
           d="M -21.749115,680.74208 L -9.627276,680.371"
           style="fill:none;fill-rule:evenodd;stroke:#000000;stroke-width:0.30000001;stroke-linecap:butt;stroke-linejoin:miter;stroke-miterlimit:4;stroke-dasharray:none;stroke-opacity:1"
           id="path42831" />
      </g>
      <path
         d="M 7.7608022,673.23834 L 72.134022,673.23834"
         style="fill:none;fill-rule:evenodd;stroke:#000000;stroke-width:2.5;stroke-linecap:butt;stroke-linejoin:miter;marker-start:none;marker-end:url(#Arrow1Lend);stroke-miterlimit:4;stroke-dasharray:none;stroke-opacity:1"
         id="path44278" />
      <g
         id="g4557">
        <path
           d="M 7.75,672 L 7.75,674.5 L 72.125,674.5 L 72.125,672 L 7.75,672 z "
           style="fill:#000000;fill-opacity:1;fill-rule:evenodd;stroke:none;stroke-width:2.5;stroke-linecap:butt;stroke-linejoin:miter;stroke-miterlimit:4;stroke-dasharray:none;stroke-opacity:1"
           id="path45279" />
        <path
           d="M 47.134022,673.23834 L 37.134022,683.23834 L 72.134022,673.23834 L 37.134022,663.23834 L 47.134022,673.23834 z "
           style="fill-rule:evenodd;stroke:#000000;stroke-width:2pt;marker-start:none"
           id="path4563" />
        <path
           d="M 47.134022,901.49543 L 37.134022,911.49543 L 72.134022,901.49543 L 37.134022,891.49543 L 47.134022,901.49543 z "
           style="fill-rule:evenodd;stroke:#000000;stroke-width:2pt;marker-start:none"
           id="path4565" />
        <path
           d="M 47.134022,1130.6363 L 37.134022,1140.6363 L 72.134022,1130.6363 L 37.134022,1120.6363 L 47.134022,1130.6363 z "
           style="fill-rule:evenodd;stroke:#000000;stroke-width:2pt;marker-start:none"
           id="path4567" />
        <path
           d="M 47.134022,1381.1023 L 37.134022,1391.1023 L 72.134022,1381.1023 L 37.134022,1371.1023 L 47.134022,1381.1023 z "
           style="fill-rule:evenodd;stroke:#000000;stroke-width:2pt;marker-start:none"
           id="path4569" />
      </g>
    </g>
    <g
       transform="translate(8.1070053,511.36255)"
       id="g45413">
      <g
         transform="translate(0,20.997185)"
         id="g21924">
        <path
           d="M 265.45857,805.60596 L 274.46967,805.60596"
           style="fill:none;fill-rule:evenodd;stroke:#000000;stroke-width:0.7433781px;stroke-linecap:butt;stroke-linejoin:miter;stroke-opacity:1"
           id="path10934" />
        <path
           d="M 201.13541,866.08804 L 201.13541,877.27506"
           style="fill:none;fill-rule:evenodd;stroke:#000000;stroke-width:0.57100385px;stroke-linecap:butt;stroke-linejoin:miter;stroke-opacity:1"
           id="path4110" />
        <rect
           width="518.67462"
           height="21.112743"
           x="95.626068"
           y="908.58582"
           style="fill:#000000;fill-opacity:0;fill-rule:evenodd;stroke:#000000;stroke-width:0.87852323px;stroke-linecap:butt;stroke-linejoin:miter;stroke-opacity:1"
           id="rect2167" />
        <rect
           width="86.763885"
           height="30.787197"
           rx="15.393599"
           ry="15.393599"
           x="159.15288"
           y="875.06055"
           style="fill:#00cc00;fill-opacity:0.87974686"
           id="rect3139" />
        <path
           d="M 219.70859,828.45532 C 219.70859,841.58746 203.72164,852.24542 184.02344,852.24542 C 164.32523,852.24542 153.16228,841.71115 153.16228,828.57901 C 153.16228,815.44688 164.86349,800.09182 184.02344,804.66522 C 194.38745,807.13906 202.02049,818.40179 209.53424,811.82542 C 218.5383,803.94466 219.70859,821.98514 219.70859,828.45532 z "
           transform="translate(17.111971,16.167895)"
           style="fill:#cc6f00;fill-opacity:0.87974686"
           id="path4115" />
        <path
           d="M 329.68118,775.5524 A 17.935373,16.945835 0 1 1 329.68268,775.53759 L 311.82809,773.93097 z"
           transform="translate(-21.80655,30.474286)"
           style="fill:#ef34da;fill-opacity:0.62068936;stroke:#0000ff;stroke-width:4;stroke-miterlimit:4;stroke-dasharray:none;stroke-dashoffset:0;stroke-opacity:0"
           id="path9959" />
        <path
           d="M 232.33976,780.81972 C 242.58634,777.25061 245.75237,777.48096 252.96753,777.75592 C 263.4672,778.15604 267.95624,782.7359 267.95624,790.76555 L 267.95624,820.94097 C 267.95624,828.97062 262.35779,839.02198 254.32815,839.02198 L 238.12994,838.8983 C 236.41248,837.74821 236.51628,829.10486 233.21979,826.04244 C 231.58147,824.52045 228.67677,825.31022 224.00345,828.79513 C 219.69589,832.00728 211.44985,823.70985 204.1207,821.14122 C 196.95883,818.6312 193.8645,811.86882 200.13447,806.22159 C 200.13447,806.22159 207.1926,801.68507 215.45624,800.69759 C 221.42057,799.98487 225.05519,783.3571 232.33976,780.81972 z "
           style="fill:#347eef;fill-opacity:0.62068936;stroke:#0000ff;stroke-width:3.71419287;stroke-miterlimit:4;stroke-dashoffset:0;stroke-opacity:0"
           id="rect9957" />
        <rect
           width="154.1319"
           height="20.791681"
           ry="0"
           x="128.88161"
           y="908.74976"
           style="fill:#00cc00;fill-opacity:0.43999999;stroke:#000000;stroke-width:0.98861098;stroke-linejoin:miter;stroke-miterlimit:4;stroke-dasharray:2.96583302, 0.98861101;stroke-dashoffset:0;stroke-opacity:1"
           id="rect10954" />
        <text
           x="179.84062"
           y="913.86212"
           transform="scale(0.9854081,1.014808)"
           style="font-size:20px;font-style:normal;font-weight:normal;fill:#000000;fill-opacity:1;stroke:none;stroke-width:1px;stroke-linecap:butt;stroke-linejoin:miter;stroke-opacity:1;font-family:Bitstream Vera Sans"
           id="text13871"
           xml:space="preserve"><tspan
             x="179.84062"
             y="913.86212"
             id="tspan13873">UAS</tspan></text>
        <text
           x="173.91127"
           y="895.76782"
           style="font-size:14px;font-style:normal;font-weight:normal;fill:#000000;fill-opacity:1;stroke:none;stroke-width:1px;stroke-linecap:butt;stroke-linejoin:miter;stroke-opacity:1;font-family:Bitstream Vera Sans"
           id="text14852"
           xml:space="preserve"><tspan
             x="173.91127"
             y="895.76782"
             id="tspan14854">Gal4 BD</tspan></text>
        <text
           x="186.32294"
           y="849.59479"
           style="font-size:14px;font-style:normal;font-weight:normal;fill:#000000;fill-opacity:1;stroke:none;stroke-width:1px;stroke-linecap:butt;stroke-linejoin:miter;stroke-opacity:1;font-family:Bitstream Vera Sans"
           id="text14856"
           xml:space="preserve"><tspan
             x="186.32294"
             y="849.59479"
             id="tspan14858">Bait</tspan></text>
        <text
           x="243.95209"
           y="814.05005"
           transform="scale(1.0079031,0.9921589)"
           style="font-size:14px;font-style:normal;font-weight:normal;text-align:center;writing-mode:lr-tb;text-anchor:middle;fill:#000000;fill-opacity:1;stroke:none;stroke-width:1px;stroke-linecap:butt;stroke-linejoin:miter;stroke-opacity:1;font-family:Bitstream Vera Sans"
           id="text14860"
           xml:space="preserve"><tspan
             x="243.95209"
             y="814.05005"
             id="tspan14864">Prey</tspan></text>
        <text
           x="290.14529"
           y="802.79724"
           style="font-size:12px;font-style:normal;font-weight:normal;text-align:center;text-anchor:middle;fill:#000000;fill-opacity:1;stroke:none;stroke-width:1px;stroke-linecap:butt;stroke-linejoin:miter;stroke-opacity:1;font-family:Bitstream Vera Sans"
           id="text14866"
           xml:space="preserve"><tspan
             x="290.14529"
             y="802.79724"
             id="tspan14868">Gal4</tspan><tspan
             x="290.14529"
             y="817.79724"
             id="tspan14870">AD</tspan></text>
        <rect
           width="221.11389"
           height="20.601622"
           ry="0"
           x="363.49762"
           y="908.84143"
           style="fill:#9ff40f;fill-opacity:0.58620689;stroke:#000000;stroke-width:1.17867231;stroke-linejoin:miter;stroke-miterlimit:4;stroke-dasharray:3.53601687, 1.1786723;stroke-dashoffset:0;stroke-opacity:1"
           id="rect11925" />
        <text
           x="472.40094"
           y="924.25037"
           style="font-size:20px;font-style:normal;font-weight:normal;text-align:center;line-height:125%;text-anchor:middle;fill:#000000;fill-opacity:1;stroke:none;stroke-width:1px;stroke-linecap:butt;stroke-linejoin:miter;stroke-opacity:1;font-family:Bitstream Vera Sans"
           id="text14872"
           xml:space="preserve"><tspan
             x="472.40094"
             y="924.25037"
             id="tspan14874">Reporter gene (<tspan
   style="font-size:20px;font-style:oblique;font-variant:normal;font-weight:normal;font-stretch:normal;text-align:center;line-height:125%;writing-mode:lr-tb;text-anchor:middle;font-family:Bitstream Vera Sans"
   id="tspan21886">LacZ</tspan>)</tspan></text>
        <g
           id="g4549">
          <path
             d="M 363,887.15625 L 363,887.65625 L 363,907.9375 L 364,907.9375 L 364,888.15625 L 434.875,888.15625 L 434.875,887.15625 L 363.5,887.15625 L 363,887.15625 z "
             style="fill:#000000;fill-opacity:1;fill-rule:evenodd;stroke:none;stroke-width:1px;stroke-linecap:butt;stroke-linejoin:miter;stroke-opacity:1"
             id="path2190" />
          <path
             d="M 439.48684,887.65533 L 432.56684,891.65533 L 432.56684,883.65533 L 439.48684,887.65533 z "
             style="fill-rule:evenodd;stroke:#000000;stroke-width:0.8pt;marker-start:none"
             id="path4555" />
        </g>
      </g>
      <g
         transform="translate(0,-12.739919)"
         id="g45259">
        <g
           transform="matrix(1.5393239,0,0,1.5393239,-46.105257,-112.40845)"
           id="g43802">
          <path
             d="M -106.35576 94.687286 A 126.64731 126.64731 0 1 1  -359.65038,94.687286 A 126.64731 126.64731 0 1 1  -106.35576 94.687286 z"
             transform="matrix(0.1938716,0,0,0.1938716,45.317049,661.54906)"
             style="fill:none;fill-opacity:1;fill-rule:evenodd;stroke:#000000;stroke-width:1;stroke-linecap:butt;stroke-linejoin:round;stroke-miterlimit:4;stroke-dasharray:none;stroke-dashoffset:0;stroke-opacity:0.99994058"
             id="path43804" />
          <path
             d="M -134.34412 94.687286 A 98.658951 98.658951 0 1 1  -331.66202,94.687286 A 98.658951 98.658951 0 1 1  -134.34412 94.687286 z"
             transform="matrix(-0.1483803,8.0733409e-2,-8.0733409e-2,-0.1483803,-26.784269,712.76709)"
             style="fill:none;fill-opacity:1;fill-rule:evenodd;stroke:#000000;stroke-width:1;stroke-linecap:butt;stroke-linejoin:round;stroke-miterlimit:4;stroke-dasharray:none;stroke-dashoffset:0;stroke-opacity:0.99994058"
             id="path43806" />
          <path
             d="M -17.453122,683.84197 L -18.943556,684.32388 L -18.546972,685.55042 L -19.163959,685.74991 L -19.800897,683.78001 L -17.418434,683.00968 C -17.119031,683.2331 -16.859574,683.50227 -16.640061,683.81719 C -16.423024,684.13292 -16.250411,684.48901 -16.122223,684.88547 C -15.84181,685.75272 -15.875028,686.51338 -16.221879,687.16743 C -16.572007,687.81981 -17.19928,688.29222 -18.103702,688.58465 C -19.010595,688.87788 -19.795701,688.86215 -20.459021,688.53745 C -21.12561,688.21107 -21.599114,687.61426 -21.879533,686.74701 C -21.996499,686.38524 -22.062861,686.02764 -22.078619,685.67419 C -22.095165,685.31828 -22.061182,684.97476 -21.976669,684.64363 L -21.177559,684.38525 C -21.323218,684.73888 -21.405044,685.09103 -21.423039,685.4417 C -21.441021,685.79237 -21.394334,686.13991 -21.282976,686.48433 C -21.063447,687.16327 -20.708848,687.61241 -20.219178,687.83178 C -19.730299,688.04866 -19.110466,688.03573 -18.359678,687.79297 C -17.611362,687.55102 -17.10253,687.19901 -16.833181,686.73697 C -16.56463,686.27244 -16.540116,685.70071 -16.759641,685.02178 C -16.845365,684.75665 -16.944179,684.52722 -17.056081,684.3335 C -17.170458,684.14059 -17.302805,683.97674 -17.453122,683.84197 M -19.165249,679.2079 C -19.178056,679.78849 -19.120539,680.1922 -18.992701,680.41903 C -18.864858,680.64587 -18.640821,680.76281 -18.320588,680.76988 C -18.065441,680.77551 -17.860527,680.69667 -17.705847,680.53338 C -17.553712,680.36742 -17.474457,680.13995 -17.468082,679.85096 C -17.459294,679.45262 -17.592849,679.13058 -17.868747,678.88485 C -18.147189,678.63647 -18.520728,678.5071 -18.989366,678.49676 L -19.149483,678.49323 L -19.165249,679.2079 M -19.430433,677.76811 L -16.934947,677.82316 L -16.950799,678.54173 L -17.6147,678.52709 C -17.352758,678.69697 -17.1607,678.90569 -17.038526,679.15323 C -16.918956,679.40072 -16.863076,679.70151 -16.870888,680.05558 C -16.880767,680.50339 -17.013605,680.85732 -17.269403,681.11737 C -17.527746,681.37475 -17.867804,681.49879 -18.289577,681.48949 C -18.781643,681.47863 -19.149028,681.30642 -19.391732,680.97286 C -19.634374,680.6367 -19.748488,680.14188 -19.734074,679.48839 L -19.711846,678.48082 L -19.782142,678.47927 C -20.112787,678.47198 -20.370346,678.5757 -20.554817,678.79043 C -20.741828,679.00251 -20.839672,679.30511 -20.848349,679.69824 C -20.853859,679.94818 -20.829288,680.19227 -20.774638,680.43051 C -20.719979,680.66876 -20.635183,680.89855 -20.520249,681.11989 L -21.18415,681.10524 C -21.279882,680.84004 -21.349756,680.58323 -21.393771,680.3348 C -21.440381,680.08632 -21.461103,679.84492 -21.455938,679.6106 C -21.441977,678.97794 -21.26753,678.50902 -20.932597,678.20383 C -20.597655,677.89865 -20.096935,677.75341 -19.430433,677.76811 M -22.497248,674.85239 L -22.329755,674.15343 L -16.418969,675.56984 L -16.586462,676.2688 L -22.497248,674.85239 M -19.655036,669.71307 L -17.72887,672.86762 L -16.856282,671.0767 L -19.655036,669.71307 M -20.36376,669.59806 L -19.929177,668.70611 L -16.512379,670.37087 L -16.147946,669.6229 L -15.557995,669.91034 L -15.922429,670.65831 L -14.686341,671.26057 L -15.030244,671.9664 L -16.266331,671.36414 L -17.419516,673.73097 L -18.10428,673.39733 L -20.36376,669.59806 M -15.636349,668.18791 L -14.304725,666.55702 L -13.808501,666.96219 L -15.140124,668.59307 L -15.636349,668.18791 M -12.720486,664.66859 L -11.440992,666.37987 L -10.427367,665.622 C -10.087408,665.36782 -9.8883275,665.11004 -9.8301246,664.84867 C -9.7714004,664.58365 -9.8504158,664.30619 -10.067171,664.01628 C -10.28549,663.72429 -10.528492,663.57107 -10.796177,663.5566 C -11.063339,663.5385 -11.3669,663.65654 -11.70686,663.91072 L -12.720486,664.66859 M -14.156699,662.74771 L -13.1041,664.15552 L -12.168686,663.45613 C -11.86001,663.22534 -11.673472,662.99645 -11.609072,662.76946 C -11.544147,662.53883 -11.600571,662.30463 -11.778342,662.06686 C -11.954555,661.83119 -12.162451,661.71187 -12.40203,661.70891 C -12.639524,661.70439 -12.912608,661.81753 -13.221285,662.04832 L -14.156699,662.74771 M -15.176943,662.70088 L -13.56265,661.4939 C -13.080864,661.13369 -12.634767,660.95622 -12.224359,660.96151 C -11.81395,660.96682 -11.470738,661.15405 -11.194722,661.5232 C -10.981085,661.80894 -10.87785,662.08618 -10.885019,662.35491 C -10.89219,662.62365 -11.009491,662.87556 -11.236922,663.11064 C -10.87626,662.94503 -10.530888,662.90466 -10.200803,662.98952 C -9.8701969,663.07074 -9.5863778,663.26986 -9.3493453,663.58688 C -9.0374672,664.00401 -8.9383632,664.43228 -9.0520329,664.87169 C -9.1657091,665.31111 -9.4842944,665.72653 -10.00779,666.11793 L -11.684652,667.3717 L -15.176943,662.70088 M -7.7495231,658.98944 L -6.4357027,663.33012 L -5.5234491,663.054 C -4.7532709,662.82089 -4.2427766,662.47592 -3.9919648,662.01908 C -3.7386681,661.5615 -3.7259349,660.95634 -3.9537654,660.2036 C -4.1800946,659.45586 -4.525149,658.96308 -4.9889294,658.72525 C -5.4509772,658.48419 -6.06709,658.48021 -6.8372696,658.71332 L -7.7495231,658.98944 M -8.6925997,658.5974 L -7.141021,658.12777 C -6.0592794,657.80036 -5.1971454,657.78565 -4.5546163,658.08364 C -3.9128481,658.37915 -3.4471141,659.00545 -3.1574129,659.96257 C -2.8662122,660.92467 -2.906569,661.70825 -3.2784835,662.31329 C -3.6504069,662.91833 -4.374745,663.38381 -5.4514999,663.70972 L -7.0030787,664.17934 L -8.6925997,658.5974 M 3.1250577,660.19236 L 2.6815963,662.28255 L 3.9196634,662.54522 C 4.3348966,662.63332 4.6599715,662.61311 4.8948893,662.48458 C 5.1328872,662.35405 5.2894512,662.11174 5.3645818,661.75764 C 5.4402441,661.401 5.3952885,661.11726 5.2297148,660.90643 C 5.0672205,660.69359 4.7783575,660.54313 4.3631248,660.45503 L 3.1250577,660.19236 M 3.622837,657.84614 L 3.258015,659.56568 L 4.4005522,659.80808 C 4.777573,659.88808 5.0726568,659.87747 5.2858044,659.77628 C 5.5020315,659.67307 5.6409543,659.47627 5.7025733,659.18585 C 5.7636424,658.89799 5.7163304,658.66301 5.560637,658.48089 C 5.407482,658.29932 5.1423946,658.16854 4.7653742,658.08855 L 3.622837,657.84614 M 2.9855344,657.04806 L 4.9572709,657.46639 C 5.5457304,657.59124 5.9732355,657.80973 6.2397876,658.12184 C 6.5063292,658.43396 6.5917704,658.81547 6.4961116,659.26636 C 6.4220608,659.61537 6.2816301,659.87575 6.0748191,660.0475 C 5.867998,660.21925 5.6012426,660.2971 5.2745523,660.28102 C 5.6368244,660.44308 5.8948442,660.67618 6.0486124,660.98034 C 6.2054584,661.28249 6.2428078,661.62718 6.1606605,662.01439 C 6.0525601,662.52388 5.7958291,662.88071 5.3904669,663.08488 C 4.985096,663.28905 4.4627064,663.32331 3.8232966,663.18765 L 1.7751362,662.7531 L 2.9855344,657.04806 M 9.9988251,663.28598 C 9.4946711,662.99775 9.1124236,662.8557 8.8520815,662.85984 C 8.5917348,662.86398 8.3820725,663.00509 8.223094,663.28317 C 8.0964251,663.50472 8.0679529,663.72242 8.1376772,663.93627 C 8.2109515,664.14914 8.3730619,664.32732 8.6240089,664.47079 C 8.9699038,664.66854 9.3166437,664.7048 9.6642295,664.57955 C 10.015362,664.45333 10.307257,664.18675 10.539915,663.77981 L 10.619406,663.64077 L 9.9988251,663.28598 M 11.390725,663.73978 L 10.151841,665.90673 L 9.5278696,665.54999 L 9.8574631,664.9735 C 9.5831943,665.12266 9.3081389,665.19189 9.0322959,665.18117 C 8.7577405,665.16819 8.466732,665.07381 8.1592696,664.89803 C 7.7704164,664.67571 7.5227327,664.39012 7.4162178,664.04125 C 7.3132543,663.69141 7.3664673,663.33337 7.5758569,662.96712 C 7.8201425,662.53984 8.1467551,662.29911 8.5556956,662.24493 C 8.9668928,662.19205 9.4562184,662.32782 10.023674,662.65224 L 10.898591,663.15245 L 10.933489,663.09141 C 11.097635,662.80429 11.12935,662.52845 11.028634,662.26388 C 10.931463,661.99835 10.712191,661.768 10.37082,661.57283 C 10.153783,661.44875 9.927537,661.3539 9.6920826,661.28827 C 9.4566218,661.22265 9.2142129,661.18755 8.9648551,661.18297 L 9.2944486,660.60648 C 9.5731914,660.64886 9.8322295,660.70996 10.071564,660.78979 C 10.312183,660.86737 10.534229,660.96432 10.737702,661.08065 C 11.287064,661.39473 11.615964,661.77175 11.724403,662.21171 C 11.832832,662.65167 11.721606,663.16103 11.390725,663.73978 M 14.281931,663.70606 L 14.815683,664.18742 L 11.885645,667.43634 L 11.351893,666.95498 L 14.281931,663.70606 M 15.422553,662.4413 L 15.956305,662.92266 L 15.346752,663.59855 L 14.813,663.11719 L 15.422553,662.4413 M 17.821762,665.6015 L 16.852044,666.37783 L 17.777283,667.53356 L 17.341214,667.88266 L 16.415975,666.72693 L 14.561922,668.21122 C 14.283406,668.43418 14.134615,668.61501 14.115549,668.75371 C 14.098108,668.89443 14.18297,669.08169 14.370135,669.31548 L 14.831534,669.89182 L 14.361922,670.26778 L 13.900523,669.69143 C 13.553862,669.25841 13.39492,668.89528 13.423696,668.60204 C 13.454503,668.30717 13.683367,667.98885 14.110288,667.64707 L 15.964341,666.16278 L 15.634771,665.75111 L 16.070839,665.40201 L 16.40041,665.81368 L 17.370128,665.03736 L 17.821762,665.6015"
             style="font-size:8px;font-style:normal;font-variant:normal;font-weight:normal;font-stretch:normal;text-align:start;line-height:100%;writing-mode:lr-tb;text-anchor:start;fill:#000000;fill-opacity:1;stroke:none;stroke-width:1px;stroke-linecap:butt;stroke-linejoin:miter;stroke-opacity:1;font-family:Bitstream Vera Sans"
             id="text43808" />
          <path
             d="M -116.33254,118.39457 L -116.33254,118.39457 L -109.28208,114.99304"
             transform="translate(95.186806,573.75939)"
             style="fill:none;fill-opacity:1;fill-rule:evenodd;stroke:#000000;stroke-width:0.2;stroke-linecap:butt;stroke-linejoin:miter;stroke-miterlimit:4;stroke-dasharray:none;stroke-opacity:1"
             id="path43812" />
          <path
             d="M -95.923322,81.657982 L -95.675938,89.512438"
             transform="translate(95.186806,573.75939)"
             style="fill:none;fill-rule:evenodd;stroke:#000000;stroke-width:0.2;stroke-linecap:butt;stroke-linejoin:miter;stroke-miterlimit:4;stroke-dasharray:none;stroke-opacity:1"
             id="path43814" />
          <path
             d="M -80.709178,97.552433 L -74.091644,93.594282"
             transform="translate(95.186806,573.75939)"
             style="fill:none;fill-rule:evenodd;stroke:#000000;stroke-width:0.2;stroke-linecap:butt;stroke-linejoin:miter;stroke-miterlimit:4;stroke-dasharray:none;stroke-opacity:1"
             id="path43816" />
        </g>
        <g
           transform="matrix(0.9940009,0.1093722,-0.1093722,0.9940009,79.484515,50.364029)"
           id="g43818">
          <path
             d="M -106.35576 94.687286 A 126.64731 126.64731 0 1 1  -359.65038,94.687286 A 126.64731 126.64731 0 1 1  -106.35576 94.687286 z"
             transform="matrix(0.291059,6.5922994e-2,-6.5922994e-2,0.291059,35.7201,785.6079)"
             style="fill:none;fill-opacity:1;fill-rule:evenodd;stroke:#000000;stroke-width:1;stroke-linecap:butt;stroke-linejoin:round;stroke-miterlimit:4;stroke-dasharray:none;stroke-dashoffset:0;stroke-opacity:0.99994058"
             id="path43820" />
          <path
             d="M -134.34412 94.687286 A 98.658951 98.658951 0 1 1  -331.66202,94.687286 A 98.658951 98.658951 0 1 1  -134.34412 94.687286 z"
             transform="matrix(-0.238223,-0.1042261,0.1042261,-0.238223,-103.71517,796.07889)"
             style="fill:none;fill-opacity:1;fill-rule:evenodd;stroke:#000000;stroke-width:1;stroke-linecap:butt;stroke-linejoin:round;stroke-miterlimit:4;stroke-dasharray:none;stroke-dashoffset:0;stroke-opacity:0.99994058"
             id="path43822" />
          <path
             d="M -20.478329,688.43964 L -18.42618,687.67091 L -18.774232,686.74178 C -18.903035,686.39793 -19.09162,686.16545 -19.339989,686.04436 C -19.58835,685.92327 -19.877143,685.92439 -20.206369,686.04771 C -20.533147,686.17013 -20.75038,686.35856 -20.858068,686.61303 C -20.965744,686.86749 -20.955182,687.16665 -20.826381,687.51051 L -20.478329,688.43964 M -20.808763,689.40603 L -21.433612,687.73797 C -21.6629,687.12587 -21.697008,686.61167 -21.535936,686.19537 C -21.378203,685.77756 -21.032305,685.46862 -20.49824,685.26855 C -19.959287,685.06667 -19.493105,685.0714 -19.099695,685.28276 C -18.707189,685.49169 -18.396292,685.9022 -18.167001,686.51431 L -17.818948,687.44345 L -15.624136,686.62128 L -15.347339,687.3602 L -20.808763,689.40603 M -20.735736,680.75224 C -20.772367,680.83811 -20.795121,680.93013 -20.804001,681.02831 C -20.815775,681.12423 -20.814647,681.22904 -20.800617,681.34276 C -20.750856,681.74596 -20.580769,682.03984 -20.290355,682.2244 C -20.002838,682.40671 -19.613548,682.46756 -19.122485,682.40696 L -16.835149,682.12468 L -16.746639,682.8419 L -21.0887,683.37774 L -21.17721,682.66053 L -20.50264,682.57728 C -20.78476,682.45991 -21.003976,682.28886 -21.160286,682.06412 C -21.319173,681.83971 -21.419829,681.55562 -21.462255,681.21188 C -21.46831,681.16277 -21.471131,681.10802 -21.470718,681.04761 C -21.47288,680.98753 -21.471968,680.92051 -21.467981,680.84655 L -20.735736,680.75224 M -18.964516,675.58717 L -18.615439,675.6289 L -19.0077,678.91022 C -18.512696,678.93793 -18.120142,678.83536 -17.830038,678.60252 C -17.54221,678.36679 -17.370012,678.01233 -17.313445,677.53914 C -17.280679,677.26505 -17.28261,676.99599 -17.319238,676.73196 C -17.355556,676.46535 -17.425799,676.19731 -17.529966,675.92782 L -16.855083,676.0085 C -16.777084,676.27748 -16.725714,676.54982 -16.700975,676.82554 C -16.676236,677.10126 -16.680404,677.37746 -16.713479,677.65413 C -16.796321,678.34712 -17.063695,678.87248 -17.515604,679.23022 C -17.967202,679.58538 -18.536907,679.72184 -19.224719,679.63962 C -19.935799,679.55462 -20.476619,679.29588 -20.847181,678.86342 C -21.220012,678.42807 -21.367481,677.88459 -21.28959,677.23298 C -21.219726,676.6486 -20.97579,676.20961 -20.55778,675.916 C -20.14204,675.61951 -19.610952,675.5099 -18.964516,675.58717 M -19.259277,676.2758 C -19.650341,676.2343 -19.975062,676.30695 -20.233439,676.49374 C -20.491501,676.67796 -20.641553,676.94589 -20.683595,677.29755 C -20.731195,677.69576 -20.65689,678.02855 -20.46068,678.29591 C -20.264154,678.5607 -19.963782,678.73561 -19.559563,678.82065 L -19.259277,676.2758 M -15.115219,673.08765 C -14.717393,673.48041 -14.483699,673.79672 -14.414136,674.03658 C -14.344577,674.27644 -14.37373,674.54463 -14.501595,674.84115 L -14.728973,675.36843 L -15.281364,675.13023 L -15.114311,674.74284 C -15.035942,674.5611 -15.018145,674.40145 -15.06092,674.26389 C -15.103699,674.12634 -15.259009,673.92749 -15.526851,673.66735 L -15.777111,673.41905 L -20.430629,673.33938 L -20.129006,672.63993 L -16.445459,672.73948 L -19.046254,670.12906 L -18.744631,669.4296 L -15.115219,673.08765 M -9.8840909,664.92187 L -10.870866,663.70536 L -11.871986,664.51742 L -12.280477,664.01383 L -10.672617,662.70961 L -9.0952532,664.65421 C -9.195722,665.01402 -9.3532668,665.35306 -9.5678881,665.67134 C -9.7841569,665.9876 -10.054087,666.27697 -10.377678,666.53945 C -11.085543,667.11363 -11.807031,667.35685 -12.542145,667.26909 C -13.276877,667.17767 -13.943639,666.76286 -14.542431,666.02465 C -15.142861,665.28444 -15.411197,664.54644 -15.347441,663.81067 C -15.283298,663.07125 -14.897297,662.41444 -14.189436,661.84025 C -13.894155,661.60074 -13.584515,661.40994 -13.260513,661.26783 C -12.934489,661.1241 -12.601812,661.03196 -12.262482,660.99143 L -11.733413,661.64367 C -12.115779,661.63529 -12.47375,661.6859 -12.807325,661.79552 C -13.140901,661.90516 -13.44825,662.07399 -13.729373,662.30201 C -14.283527,662.75152 -14.574654,663.24419 -14.602756,663.78001 C -14.628832,664.31421 -14.393331,664.8877 -13.896254,665.50051 C -13.400815,666.11129 -12.889057,666.45903 -12.360979,666.54371 C -11.83088,666.62676 -11.288753,666.44353 -10.734596,665.99402 C -10.518194,665.81849 -10.339814,665.64362 -10.199454,665.46941 C -10.06074,665.29318 -9.9556187,665.11067 -9.8840909,664.92187 M -6.1881438,661.64954 C -6.733774,661.84837 -7.0890622,662.04852 -7.2540097,662.24999 C -7.4189587,662.45146 -7.4465971,662.70266 -7.336925,663.00361 C -7.2495453,663.2434 -7.1017011,663.40571 -6.8933922,663.49056 C -6.6835303,663.57207 -6.4428034,663.56334 -6.1712108,663.46437 C -5.7968578,663.32795 -5.5452776,663.0866 -5.4164695,662.74031 C -5.2861115,662.3907 -5.3011785,661.99568 -5.4616707,661.55526 L -5.5165064,661.40478 L -6.1881438,661.64954 M -4.9428456,660.87976 L -4.0882106,663.22498 L -4.7635181,663.47107 L -4.9908858,662.84715 C -5.054088,663.15289 -5.1788403,663.40762 -5.3651433,663.61132 C -5.5523432,663.81258 -5.8123217,663.97384 -6.1450798,664.0951 C -6.565925,664.24847 -6.9439303,664.25318 -7.2790966,664.10923 C -7.6127093,663.96195 -7.8517379,663.69013 -7.9961831,663.29375 C -8.1647025,662.83131 -8.1376147,662.42647 -7.9149195,662.07924 C -7.6897777,661.73111 -7.2701379,661.44515 -6.6559988,661.22134 L -5.7091002,660.87628 L -5.7331744,660.81022 C -5.8464146,660.49948 -6.0365592,660.29715 -6.3036086,660.20321 C -6.5691063,660.10595 -6.886585,660.12463 -7.2560456,660.25927 C -7.4909357,660.34487 -7.7094543,660.45638 -7.911602,660.59379 C -8.11375,660.7312 -8.2970804,660.89364 -8.4615937,661.08108 L -8.6889614,660.45716 C -8.4766114,660.27168 -8.262686,660.11334 -8.0471845,659.98215 C -7.8325747,659.84851 -7.6151654,659.74157 -7.394956,659.66131 C -6.800393,659.44465 -6.3001322,659.43696 -5.8941721,659.63825 C -5.4882163,659.83956 -5.1711078,660.25339 -4.9428456,660.87976 M -3.3277207,656.96302 L -2.6154662,656.86661 L -1.8001649,662.8898 L -2.5124194,662.98621 L -3.3277207,656.96302 M 2.5006032,657.76209 L 0.25035324,660.69427 L 2.2352937,660.86404 L 2.5006032,657.76209 M 2.3529129,657.05944 L 3.3414911,657.144 L 3.0175938,660.93095 L 3.8465983,661.00186 L 3.7906736,661.65572 L 2.9616691,661.58481 L 2.8444935,662.95481 L 2.0621934,662.8879 L 2.179369,661.5179 L -0.44386606,661.29354 L -0.37895344,660.53459 L 2.3529129,657.05944 M 5.3757744,660.96209 L 7.3753121,661.62152 L 7.1746692,662.22992 L 5.1751316,661.57049 L 5.3757744,660.96209 M 12.002767,661.16715 L 9.5476851,663.0491 L 11.360672,664.19457 L 12.002767,661.16715 M 12.041506,660.27213 L 12.797742,660.74992 L 11.561691,666.86752 L 10.868199,666.42936 L 11.218194,664.88081 L 8.9957168,663.47662 L 7.7474839,664.45766 L 7.0440847,664.01324 L 12.041506,660.27213 M 16.881378,665.08332 L 13.290564,667.85346 L 13.872748,668.60812 C 14.364261,669.24525 14.868084,669.59989 15.38422,669.67205 C 15.901939,669.74627 16.472148,669.54319 17.094849,669.06282 C 17.713416,668.58561 18.051476,668.08801 18.109032,667.56999 C 18.170228,667.05244 17.955071,666.47511 17.463562,665.83798 L 16.881378,665.08332 M 16.912822,664.06248 L 17.903011,665.34602 C 18.593353,666.24089 18.913377,667.04156 18.863084,667.74804 C 18.814838,668.45293 18.394833,669.11078 17.603067,669.7216 C 16.807165,670.33559 16.060367,670.57623 15.36267,670.44351 C 14.664966,670.31079 13.972532,669.79906 13.285367,668.90832 L 12.295177,667.62478 L 16.912822,664.06248"
             transform="matrix(1.5012977,0.3400343,-0.3400343,1.5012977,192.63509,-222.98353)"
             style="font-size:8px;font-style:normal;font-variant:normal;font-weight:normal;font-stretch:normal;text-align:start;line-height:100%;writing-mode:lr-tb;text-anchor:start;fill:#000000;fill-opacity:1;stroke:none;stroke-width:1px;stroke-linecap:butt;stroke-linejoin:miter;stroke-opacity:1;font-family:Bitstream Vera Sans"
             id="text43824" />
          <path
             d="M -74.467039,808.95534 L -74.467039,808.95534 L -62.725563,806.24603"
             style="fill:none;fill-opacity:1;fill-rule:evenodd;stroke:#000000;stroke-width:0.30000001;stroke-linecap:butt;stroke-linejoin:miter;stroke-miterlimit:4;stroke-dasharray:none;stroke-opacity:1"
             id="path43828" />
          <path
             d="M -108.84916,217.22466 L -97.22209,213.88497"
             transform="translate(95.186806,573.75939)"
             style="fill:none;fill-rule:evenodd;stroke:#000000;stroke-width:0.30000001;stroke-linecap:butt;stroke-linejoin:miter;stroke-miterlimit:4;stroke-dasharray:none;stroke-opacity:1"
             id="path43830" />
          <path
             d="M -158.82082,195.82591 L -150.16236,204.36067"
             transform="translate(95.186806,573.75939)"
             style="fill:none;fill-rule:evenodd;stroke:#000000;stroke-width:0.30000001;stroke-linecap:butt;stroke-linejoin:miter;stroke-miterlimit:4;stroke-dasharray:none;stroke-opacity:1"
             id="path43832" />
        </g>
        <text
           x="-54.261929"
           y="892.95917"
           style="font-size:20px;font-style:normal;font-variant:normal;font-weight:normal;font-stretch:normal;text-align:start;line-height:125%;writing-mode:lr-tb;text-anchor:start;fill:#000000;fill-opacity:1;stroke:none;stroke-width:1px;stroke-linecap:butt;stroke-linejoin:miter;stroke-opacity:1;font-family:Bitstream Vera Sans"
           id="text45255"
           xml:space="preserve"><tspan
             x="-54.261929"
             y="892.95917"
             id="tspan45257">+</tspan></text>
      </g>
      <use
         transform="translate(-0.8352203,200.70745)"
         id="use45285"
         x="0"
         y="0"
         width="699.88043"
         height="730.02386"
         xlink:href="#path45279" />
    </g>
    <g
       transform="translate(6.7768434,-151.73562)"
       id="g45379">
      <g
         transform="translate(0,1.505221)"
         id="g45293">
        <path
           d="M 201.13541,1047.1735 L 201.13541,1058.3605"
           style="fill:none;fill-rule:evenodd;stroke:#000000;stroke-width:0.57100385px;stroke-linecap:butt;stroke-linejoin:miter;stroke-opacity:1"
           id="path21954" />
        <rect
           width="518.67462"
           height="21.112743"
           x="95.626068"
           y="1089.6713"
           style="fill:#000000;fill-opacity:0;fill-rule:evenodd;stroke:#000000;stroke-width:0.87852323px;stroke-linecap:butt;stroke-linejoin:miter;stroke-opacity:1"
           id="rect21956" />
        <rect
           width="86.763885"
           height="30.787197"
           rx="15.393599"
           ry="15.393599"
           x="159.15288"
           y="1056.146"
           style="fill:#00cc00;fill-opacity:0.87974686"
           id="rect21958" />
        <path
           d="M 236.82056,1025.7086 C 236.82056,1038.8408 220.83361,1049.4987 201.13541,1049.4987 C 181.4372,1049.4987 170.27425,1038.9645 170.27425,1025.8323 C 170.27425,1012.7002 181.97546,997.34513 201.13541,1001.9185 C 211.49942,1004.3924 219.13246,1015.6551 226.64621,1009.0787 C 235.65027,1001.198 236.82056,1019.2385 236.82056,1025.7086 z "
           style="fill:#cc6f00;fill-opacity:0.87974686"
           id="path21960" />
        <rect
           width="154.1319"
           height="20.791681"
           ry="0"
           x="128.88161"
           y="1089.8352"
           style="fill:#00cc00;fill-opacity:0.43999999;stroke:#000000;stroke-width:0.98861098;stroke-linejoin:miter;stroke-miterlimit:4;stroke-dasharray:2.96583302, 0.98861101;stroke-dashoffset:0;stroke-opacity:1"
           id="rect21966" />
        <text
           x="179.84062"
           y="1092.3052"
           transform="scale(0.9854081,1.014808)"
           style="font-size:20px;font-style:normal;font-weight:normal;fill:#000000;fill-opacity:1;stroke:none;stroke-width:1px;stroke-linecap:butt;stroke-linejoin:miter;stroke-opacity:1;font-family:Bitstream Vera Sans"
           id="text21968"
           xml:space="preserve"><tspan
             x="179.84062"
             y="1092.3052"
             id="tspan21970">UAS</tspan></text>
        <text
           x="173.91127"
           y="1076.8533"
           style="font-size:14px;font-style:normal;font-weight:normal;fill:#000000;fill-opacity:1;stroke:none;stroke-width:1px;stroke-linecap:butt;stroke-linejoin:miter;stroke-opacity:1;font-family:Bitstream Vera Sans"
           id="text21972"
           xml:space="preserve"><tspan
             x="173.91127"
             y="1076.8533"
             id="tspan21974">Gal4 BD</tspan></text>
        <text
           x="186.32294"
           y="1030.6802"
           style="font-size:14px;font-style:normal;font-weight:normal;fill:#000000;fill-opacity:1;stroke:none;stroke-width:1px;stroke-linecap:butt;stroke-linejoin:miter;stroke-opacity:1;font-family:Bitstream Vera Sans"
           id="text21976"
           xml:space="preserve"><tspan
             x="186.32294"
             y="1030.6802"
             id="tspan21978">Bait</tspan></text>
        <rect
           width="221.11389"
           height="20.601622"
           ry="0"
           x="363.49762"
           y="1089.9269"
           style="fill:#9ff40f;fill-opacity:0.58620689;stroke:#000000;stroke-width:1.17867231;stroke-linejoin:miter;stroke-miterlimit:4;stroke-dasharray:3.53601687, 1.1786723;stroke-dashoffset:0;stroke-opacity:1"
           id="rect21990" />
        <text
           x="472.40094"
           y="1105.3358"
           style="font-size:20px;font-style:normal;font-weight:normal;text-align:center;line-height:125%;text-anchor:middle;fill:#000000;fill-opacity:1;stroke:none;stroke-width:1px;stroke-linecap:butt;stroke-linejoin:miter;stroke-opacity:1;font-family:Bitstream Vera Sans"
           id="text21992"
           xml:space="preserve"><tspan
             x="472.40094"
             y="1105.3358"
             id="tspan21994">Reporter gene (<tspan
   style="font-size:20px;font-style:oblique;font-variant:normal;font-weight:normal;font-stretch:normal;text-align:center;line-height:125%;writing-mode:lr-tb;text-anchor:middle;font-family:Bitstream Vera Sans"
   id="tspan21996">LacZ</tspan>)</tspan></text>
        <g
           id="g22136">
          <g
             id="g4541">
            <path
               d="M 363,1068.25 L 363,1068.75 L 363,1089.0312 L 364,1089.0312 L 364,1069.25 L 434.875,1069.25 L 434.875,1068.25 L 363.5,1068.25 L 363,1068.25 z "
               style="fill:#000000;fill-opacity:1;fill-rule:evenodd;stroke:none;stroke-width:1px;stroke-linecap:butt;stroke-linejoin:miter;stroke-opacity:1"
               id="path21998" />
            <path
               d="M 439.48684,1068.7407 L 432.56684,1072.7407 L 432.56684,1064.7407 L 439.48684,1068.7407 z "
               style="fill-rule:evenodd;stroke:#000000;stroke-width:0.8pt;marker-start:none"
               id="path4547" />
          </g>
          <g
             id="g22112">
            <path
               d="M 385.12139,1059.3339 L 404.91215,1078.1351"
               style="fill:none;fill-rule:evenodd;stroke:#000000;stroke-width:1px;stroke-linecap:butt;stroke-linejoin:miter;stroke-opacity:1"
               id="path22108" />
            <path
               d="M 404.91215,1059.3339 L 385.12139,1078.1351"
               style="fill:none;fill-rule:evenodd;stroke:#000000;stroke-width:1px;stroke-linecap:butt;stroke-linejoin:miter;stroke-opacity:1"
               id="path22110" />
          </g>
          <text
             x="365.31857"
             y="1054.8887"
             style="font-size:7.66194582px;font-style:normal;font-weight:normal;fill:#000000;fill-opacity:1;stroke:none;stroke-width:1px;stroke-linecap:butt;stroke-linejoin:miter;stroke-opacity:1;font-family:Bitstream Vera Sans"
             id="text22116"
             xml:space="preserve"><tspan
               x="365.31857"
               y="1054.8887"
               id="tspan22118">no transcription</tspan></text>
        </g>
      </g>
      <g
         transform="matrix(1.5393239,0,0,1.5393239,-43.452823,11.068035)"
         id="g41762">
        <path
           d="M -106.35576 94.687286 A 126.64731 126.64731 0 1 1  -359.65038,94.687286 A 126.64731 126.64731 0 1 1  -106.35576 94.687286 z"
           transform="matrix(0.1938716,0,0,0.1938716,45.317049,661.54906)"
           style="fill:none;fill-opacity:1;fill-rule:evenodd;stroke:#000000;stroke-width:1;stroke-linecap:butt;stroke-linejoin:round;stroke-miterlimit:4;stroke-dasharray:none;stroke-dashoffset:0;stroke-opacity:0.99994058"
           id="path22242" />
        <path
           d="M -134.34412 94.687286 A 98.658951 98.658951 0 1 1  -331.66202,94.687286 A 98.658951 98.658951 0 1 1  -134.34412 94.687286 z"
           transform="matrix(-0.1483803,8.0733409e-2,-8.0733409e-2,-0.1483803,-26.784269,712.76709)"
           style="fill:none;fill-opacity:1;fill-rule:evenodd;stroke:#000000;stroke-width:1;stroke-linecap:butt;stroke-linejoin:round;stroke-miterlimit:4;stroke-dasharray:none;stroke-dashoffset:0;stroke-opacity:0.99994058"
           id="path34850" />
        <path
           d="M -17.453122,683.84197 L -18.943556,684.32388 L -18.546972,685.55042 L -19.163959,685.74991 L -19.800897,683.78001 L -17.418434,683.00968 C -17.119031,683.2331 -16.859574,683.50227 -16.640061,683.81719 C -16.423024,684.13292 -16.250411,684.48901 -16.122223,684.88547 C -15.84181,685.75272 -15.875028,686.51338 -16.221879,687.16743 C -16.572007,687.81981 -17.19928,688.29222 -18.103702,688.58465 C -19.010595,688.87788 -19.795701,688.86215 -20.459021,688.53745 C -21.12561,688.21107 -21.599114,687.61426 -21.879533,686.74701 C -21.996499,686.38524 -22.062861,686.02764 -22.078619,685.67419 C -22.095165,685.31828 -22.061182,684.97476 -21.976669,684.64363 L -21.177559,684.38525 C -21.323218,684.73888 -21.405044,685.09103 -21.423039,685.4417 C -21.441021,685.79237 -21.394334,686.13991 -21.282976,686.48433 C -21.063447,687.16327 -20.708848,687.61241 -20.219178,687.83178 C -19.730299,688.04866 -19.110466,688.03573 -18.359678,687.79297 C -17.611362,687.55102 -17.10253,687.19901 -16.833181,686.73697 C -16.56463,686.27244 -16.540116,685.70071 -16.759641,685.02178 C -16.845365,684.75665 -16.944179,684.52722 -17.056081,684.3335 C -17.170458,684.14059 -17.302805,683.97674 -17.453122,683.84197 M -19.165249,679.2079 C -19.178056,679.78849 -19.120539,680.1922 -18.992701,680.41903 C -18.864858,680.64587 -18.640821,680.76281 -18.320588,680.76988 C -18.065441,680.77551 -17.860527,680.69667 -17.705847,680.53338 C -17.553712,680.36742 -17.474457,680.13995 -17.468082,679.85096 C -17.459294,679.45262 -17.592849,679.13058 -17.868747,678.88485 C -18.147189,678.63647 -18.520728,678.5071 -18.989366,678.49676 L -19.149483,678.49323 L -19.165249,679.2079 M -19.430433,677.76811 L -16.934947,677.82316 L -16.950799,678.54173 L -17.6147,678.52709 C -17.352758,678.69697 -17.1607,678.90569 -17.038526,679.15323 C -16.918956,679.40072 -16.863076,679.70151 -16.870888,680.05558 C -16.880767,680.50339 -17.013605,680.85732 -17.269403,681.11737 C -17.527746,681.37475 -17.867804,681.49879 -18.289577,681.48949 C -18.781643,681.47863 -19.149028,681.30642 -19.391732,680.97286 C -19.634374,680.6367 -19.748488,680.14188 -19.734074,679.48839 L -19.711846,678.48082 L -19.782142,678.47927 C -20.112787,678.47198 -20.370346,678.5757 -20.554817,678.79043 C -20.741828,679.00251 -20.839672,679.30511 -20.848349,679.69824 C -20.853859,679.94818 -20.829288,680.19227 -20.774638,680.43051 C -20.719979,680.66876 -20.635183,680.89855 -20.520249,681.11989 L -21.18415,681.10524 C -21.279882,680.84004 -21.349756,680.58323 -21.393771,680.3348 C -21.440381,680.08632 -21.461103,679.84492 -21.455938,679.6106 C -21.441977,678.97794 -21.26753,678.50902 -20.932597,678.20383 C -20.597655,677.89865 -20.096935,677.75341 -19.430433,677.76811 M -22.497248,674.85239 L -22.329755,674.15343 L -16.418969,675.56984 L -16.586462,676.2688 L -22.497248,674.85239 M -19.655036,669.71307 L -17.72887,672.86762 L -16.856282,671.0767 L -19.655036,669.71307 M -20.36376,669.59806 L -19.929177,668.70611 L -16.512379,670.37087 L -16.147946,669.6229 L -15.557995,669.91034 L -15.922429,670.65831 L -14.686341,671.26057 L -15.030244,671.9664 L -16.266331,671.36414 L -17.419516,673.73097 L -18.10428,673.39733 L -20.36376,669.59806 M -15.636349,668.18791 L -14.304725,666.55702 L -13.808501,666.96219 L -15.140124,668.59307 L -15.636349,668.18791 M -12.720486,664.66859 L -11.440992,666.37987 L -10.427367,665.622 C -10.087408,665.36782 -9.8883275,665.11004 -9.8301246,664.84867 C -9.7714004,664.58365 -9.8504158,664.30619 -10.067171,664.01628 C -10.28549,663.72429 -10.528492,663.57107 -10.796177,663.5566 C -11.063339,663.5385 -11.3669,663.65654 -11.70686,663.91072 L -12.720486,664.66859 M -14.156699,662.74771 L -13.1041,664.15552 L -12.168686,663.45613 C -11.86001,663.22534 -11.673472,662.99645 -11.609072,662.76946 C -11.544147,662.53883 -11.600571,662.30463 -11.778342,662.06686 C -11.954555,661.83119 -12.162451,661.71187 -12.40203,661.70891 C -12.639524,661.70439 -12.912608,661.81753 -13.221285,662.04832 L -14.156699,662.74771 M -15.176943,662.70088 L -13.56265,661.4939 C -13.080864,661.13369 -12.634767,660.95622 -12.224359,660.96151 C -11.81395,660.96682 -11.470738,661.15405 -11.194722,661.5232 C -10.981085,661.80894 -10.87785,662.08618 -10.885019,662.35491 C -10.89219,662.62365 -11.009491,662.87556 -11.236922,663.11064 C -10.87626,662.94503 -10.530888,662.90466 -10.200803,662.98952 C -9.8701969,663.07074 -9.5863778,663.26986 -9.3493453,663.58688 C -9.0374672,664.00401 -8.9383632,664.43228 -9.0520329,664.87169 C -9.1657091,665.31111 -9.4842944,665.72653 -10.00779,666.11793 L -11.684652,667.3717 L -15.176943,662.70088 M -7.7495231,658.98944 L -6.4357027,663.33012 L -5.5234491,663.054 C -4.7532709,662.82089 -4.2427766,662.47592 -3.9919648,662.01908 C -3.7386681,661.5615 -3.7259349,660.95634 -3.9537654,660.2036 C -4.1800946,659.45586 -4.525149,658.96308 -4.9889294,658.72525 C -5.4509772,658.48419 -6.06709,658.48021 -6.8372696,658.71332 L -7.7495231,658.98944 M -8.6925997,658.5974 L -7.141021,658.12777 C -6.0592794,657.80036 -5.1971454,657.78565 -4.5546163,658.08364 C -3.9128481,658.37915 -3.4471141,659.00545 -3.1574129,659.96257 C -2.8662122,660.92467 -2.906569,661.70825 -3.2784835,662.31329 C -3.6504069,662.91833 -4.374745,663.38381 -5.4514999,663.70972 L -7.0030787,664.17934 L -8.6925997,658.5974 M 3.1250577,660.19236 L 2.6815963,662.28255 L 3.9196634,662.54522 C 4.3348966,662.63332 4.6599715,662.61311 4.8948893,662.48458 C 5.1328872,662.35405 5.2894512,662.11174 5.3645818,661.75764 C 5.4402441,661.401 5.3952885,661.11726 5.2297148,660.90643 C 5.0672205,660.69359 4.7783575,660.54313 4.3631248,660.45503 L 3.1250577,660.19236 M 3.622837,657.84614 L 3.258015,659.56568 L 4.4005522,659.80808 C 4.777573,659.88808 5.0726568,659.87747 5.2858044,659.77628 C 5.5020315,659.67307 5.6409543,659.47627 5.7025733,659.18585 C 5.7636424,658.89799 5.7163304,658.66301 5.560637,658.48089 C 5.407482,658.29932 5.1423946,658.16854 4.7653742,658.08855 L 3.622837,657.84614 M 2.9855344,657.04806 L 4.9572709,657.46639 C 5.5457304,657.59124 5.9732355,657.80973 6.2397876,658.12184 C 6.5063292,658.43396 6.5917704,658.81547 6.4961116,659.26636 C 6.4220608,659.61537 6.2816301,659.87575 6.0748191,660.0475 C 5.867998,660.21925 5.6012426,660.2971 5.2745523,660.28102 C 5.6368244,660.44308 5.8948442,660.67618 6.0486124,660.98034 C 6.2054584,661.28249 6.2428078,661.62718 6.1606605,662.01439 C 6.0525601,662.52388 5.7958291,662.88071 5.3904669,663.08488 C 4.985096,663.28905 4.4627064,663.32331 3.8232966,663.18765 L 1.7751362,662.7531 L 2.9855344,657.04806 M 9.9988251,663.28598 C 9.4946711,662.99775 9.1124236,662.8557 8.8520815,662.85984 C 8.5917348,662.86398 8.3820725,663.00509 8.223094,663.28317 C 8.0964251,663.50472 8.0679529,663.72242 8.1376772,663.93627 C 8.2109515,664.14914 8.3730619,664.32732 8.6240089,664.47079 C 8.9699038,664.66854 9.3166437,664.7048 9.6642295,664.57955 C 10.015362,664.45333 10.307257,664.18675 10.539915,663.77981 L 10.619406,663.64077 L 9.9988251,663.28598 M 11.390725,663.73978 L 10.151841,665.90673 L 9.5278696,665.54999 L 9.8574631,664.9735 C 9.5831943,665.12266 9.3081389,665.19189 9.0322959,665.18117 C 8.7577405,665.16819 8.466732,665.07381 8.1592696,664.89803 C 7.7704164,664.67571 7.5227327,664.39012 7.4162178,664.04125 C 7.3132543,663.69141 7.3664673,663.33337 7.5758569,662.96712 C 7.8201425,662.53984 8.1467551,662.29911 8.5556956,662.24493 C 8.9668928,662.19205 9.4562184,662.32782 10.023674,662.65224 L 10.898591,663.15245 L 10.933489,663.09141 C 11.097635,662.80429 11.12935,662.52845 11.028634,662.26388 C 10.931463,661.99835 10.712191,661.768 10.37082,661.57283 C 10.153783,661.44875 9.927537,661.3539 9.6920826,661.28827 C 9.4566218,661.22265 9.2142129,661.18755 8.9648551,661.18297 L 9.2944486,660.60648 C 9.5731914,660.64886 9.8322295,660.70996 10.071564,660.78979 C 10.312183,660.86737 10.534229,660.96432 10.737702,661.08065 C 11.287064,661.39473 11.615964,661.77175 11.724403,662.21171 C 11.832832,662.65167 11.721606,663.16103 11.390725,663.73978 M 14.281931,663.70606 L 14.815683,664.18742 L 11.885645,667.43634 L 11.351893,666.95498 L 14.281931,663.70606 M 15.422553,662.4413 L 15.956305,662.92266 L 15.346752,663.59855 L 14.813,663.11719 L 15.422553,662.4413 M 17.821762,665.6015 L 16.852044,666.37783 L 17.777283,667.53356 L 17.341214,667.88266 L 16.415975,666.72693 L 14.561922,668.21122 C 14.283406,668.43418 14.134615,668.61501 14.115549,668.75371 C 14.098108,668.89443 14.18297,669.08169 14.370135,669.31548 L 14.831534,669.89182 L 14.361922,670.26778 L 13.900523,669.69143 C 13.553862,669.25841 13.39492,668.89528 13.423696,668.60204 C 13.454503,668.30717 13.683367,667.98885 14.110288,667.64707 L 15.964341,666.16278 L 15.634771,665.75111 L 16.070839,665.40201 L 16.40041,665.81368 L 17.370128,665.03736 L 17.821762,665.6015"
           style="font-size:8px;font-style:normal;font-variant:normal;font-weight:normal;font-stretch:normal;text-align:start;line-height:100%;writing-mode:lr-tb;text-anchor:start;fill:#000000;fill-opacity:1;stroke:none;stroke-width:1px;stroke-linecap:butt;stroke-linejoin:miter;stroke-opacity:1;font-family:Bitstream Vera Sans"
           id="text34860" />
        <path
           d="M -116.33254,118.39457 L -116.33254,118.39457 L -109.28208,114.99304"
           transform="translate(95.186806,573.75939)"
           style="fill:none;fill-opacity:1;fill-rule:evenodd;stroke:#000000;stroke-width:0.2;stroke-linecap:butt;stroke-linejoin:miter;stroke-miterlimit:4;stroke-dasharray:none;stroke-opacity:1"
           id="path36888" />
        <path
           d="M -95.923322,81.657982 L -95.675938,89.512438"
           transform="translate(95.186806,573.75939)"
           style="fill:none;fill-rule:evenodd;stroke:#000000;stroke-width:0.2;stroke-linecap:butt;stroke-linejoin:miter;stroke-miterlimit:4;stroke-dasharray:none;stroke-opacity:1"
           id="path37869" />
        <path
           d="M -80.709178,97.552433 L -74.091644,93.594282"
           transform="translate(95.186806,573.75939)"
           style="fill:none;fill-rule:evenodd;stroke:#000000;stroke-width:0.2;stroke-linecap:butt;stroke-linejoin:miter;stroke-miterlimit:4;stroke-dasharray:none;stroke-opacity:1"
           id="path39809" />
      </g>
      <use
         transform="translate(0.4949417,384.42561)"
         id="use45289"
         x="0"
         y="0"
         width="699.88043"
         height="730.02386"
         xlink:href="#path45279" />
    </g>
    <g
       transform="translate(8.7594149,-147.3646)"
       id="g45343">
      <g
         id="g45317">
        <rect
           width="518.67462"
           height="21.112743"
           x="95.626068"
           y="1331.21"
           style="fill:#000000;fill-opacity:0;fill-rule:evenodd;stroke:#000000;stroke-width:0.87852323px;stroke-linecap:butt;stroke-linejoin:miter;stroke-opacity:1"
           id="rect22150" />
        <rect
           width="154.1319"
           height="20.791681"
           ry="0"
           x="128.88161"
           y="1331.3739"
           style="fill:#00cc00;fill-opacity:0.43999999;stroke:#000000;stroke-width:0.98861098;stroke-linejoin:miter;stroke-miterlimit:4;stroke-dasharray:2.96583302, 0.98861101;stroke-dashoffset:0;stroke-opacity:1"
           id="rect22160" />
        <text
           x="179.84062"
           y="1330.3195"
           transform="scale(0.9854081,1.014808)"
           style="font-size:20px;font-style:normal;font-weight:normal;fill:#000000;fill-opacity:1;stroke:none;stroke-width:1px;stroke-linecap:butt;stroke-linejoin:miter;stroke-opacity:1;font-family:Bitstream Vera Sans"
           id="text22162"
           xml:space="preserve"><tspan
             x="179.84062"
             y="1330.3195"
             id="tspan22164">UAS</tspan></text>
        <g
           transform="matrix(0.7498261,0.661635,-0.661635,0.7498261,804.70868,150.22648)"
           id="g22218">
          <path
             d="M 265.45857,1240.2301 L 274.46967,1240.2301"
             style="fill:none;fill-rule:evenodd;stroke:#000000;stroke-width:0.7433781px;stroke-linecap:butt;stroke-linejoin:miter;stroke-opacity:1"
             id="path22146" />
          <path
             d="M 329.68118,775.5524 A 17.935373,16.945835 0 1 1 329.68268,775.53759 L 311.82809,773.93097 z"
             transform="translate(-21.80655,465.09846)"
             style="fill:#ef34da;fill-opacity:0.62068936;stroke:#0000ff;stroke-width:4;stroke-miterlimit:4;stroke-dasharray:none;stroke-dashoffset:0;stroke-opacity:0"
             id="path22156" />
          <path
             d="M 232.33976,1215.4439 C 242.58634,1211.8748 245.75237,1212.1051 252.96753,1212.3801 C 263.4672,1212.7802 267.95624,1217.3601 267.95624,1225.3897 L 267.95624,1255.5651 C 267.95624,1263.5948 262.35779,1273.6462 254.32815,1273.6462 L 238.12994,1273.5225 C 236.41248,1272.3724 236.51628,1263.729 233.21979,1260.6666 C 231.58147,1259.1446 228.67677,1259.9344 224.00345,1263.4193 C 219.69589,1266.6314 211.44985,1258.334 204.1207,1255.7654 C 196.95883,1253.2554 193.8645,1246.493 200.13447,1240.8458 C 200.13447,1240.8458 207.1926,1236.3092 215.45624,1235.3218 C 221.42057,1234.609 225.05519,1217.9813 232.33976,1215.4439 z "
             style="fill:#347eef;fill-opacity:0.62068936;stroke:#0000ff;stroke-width:3.71419287;stroke-miterlimit:4;stroke-dashoffset:0;stroke-opacity:0"
             id="path22158" />
          <text
             x="243.95209"
             y="1252.1095"
             transform="scale(1.0079031,0.9921589)"
             style="font-size:14px;font-style:normal;font-weight:normal;text-align:center;writing-mode:lr-tb;text-anchor:middle;fill:#000000;fill-opacity:1;stroke:none;stroke-width:1px;stroke-linecap:butt;stroke-linejoin:miter;stroke-opacity:1;font-family:Bitstream Vera Sans"
             id="text22174"
             xml:space="preserve"><tspan
               x="243.95209"
               y="1252.1095"
               id="tspan22176">Prey</tspan></text>
          <text
             x="290.14529"
             y="1237.4214"
             style="font-size:12px;font-style:normal;font-weight:normal;text-align:center;text-anchor:middle;fill:#000000;fill-opacity:1;stroke:none;stroke-width:1px;stroke-linecap:butt;stroke-linejoin:miter;stroke-opacity:1;font-family:Bitstream Vera Sans"
             id="text22178"
             xml:space="preserve"><tspan
               x="290.14529"
               y="1237.4214"
               id="tspan22180">Gal4</tspan><tspan
               x="290.14529"
               y="1252.4214"
               id="tspan22182">AD</tspan></text>
        </g>
        <rect
           width="221.11389"
           height="20.601622"
           ry="0"
           x="363.49762"
           y="1331.4656"
           style="fill:#9ff40f;fill-opacity:0.58620689;stroke:#000000;stroke-width:1.17867231;stroke-linejoin:miter;stroke-miterlimit:4;stroke-dasharray:3.53601687, 1.1786723;stroke-dashoffset:0;stroke-opacity:1"
           id="rect22184" />
        <text
           x="472.40094"
           y="1346.8745"
           style="font-size:20px;font-style:normal;font-weight:normal;text-align:center;line-height:125%;text-anchor:middle;fill:#000000;fill-opacity:1;stroke:none;stroke-width:1px;stroke-linecap:butt;stroke-linejoin:miter;stroke-opacity:1;font-family:Bitstream Vera Sans"
           id="text22186"
           xml:space="preserve"><tspan
             x="472.40094"
             y="1346.8745"
             id="tspan22188">Reporter gene (<tspan
   style="font-size:20px;font-style:oblique;font-variant:normal;font-weight:normal;font-stretch:normal;text-align:center;line-height:125%;writing-mode:lr-tb;text-anchor:middle;font-family:Bitstream Vera Sans"
   id="tspan22190">LacZ</tspan>)</tspan></text>
        <g
           transform="translate(0,241.82038)"
           id="g22228">
          <g
             id="g4533">
            <path
               d="M 363,1068.25 L 363,1068.75 L 363,1089.0312 L 364,1089.0312 L 364,1069.25 L 434.875,1069.25 L 434.875,1068.25 L 363.5,1068.25 L 363,1068.25 z "
               style="fill:#000000;fill-opacity:1;fill-rule:evenodd;stroke:none;stroke-width:1px;stroke-linecap:butt;stroke-linejoin:miter;stroke-opacity:1"
               id="path22230" />
            <path
               d="M 439.48684,1068.7407 L 432.56684,1072.7407 L 432.56684,1064.7407 L 439.48684,1068.7407 z "
               style="fill-rule:evenodd;stroke:#000000;stroke-width:0.8pt;marker-start:none"
               id="path4539" />
          </g>
          <g
             id="g22232">
            <path
               d="M 385.12139,1059.3339 L 404.91215,1078.1351"
               style="fill:none;fill-rule:evenodd;stroke:#000000;stroke-width:1px;stroke-linecap:butt;stroke-linejoin:miter;stroke-opacity:1"
               id="path22234" />
            <path
               d="M 404.91215,1059.3339 L 385.12139,1078.1351"
               style="fill:none;fill-rule:evenodd;stroke:#000000;stroke-width:1px;stroke-linecap:butt;stroke-linejoin:miter;stroke-opacity:1"
               id="path22236" />
          </g>
          <text
             x="365.31857"
             y="1054.8887"
             style="font-size:7.66194582px;font-style:normal;font-weight:normal;fill:#000000;fill-opacity:1;stroke:none;stroke-width:1px;stroke-linecap:butt;stroke-linejoin:miter;stroke-opacity:1;font-family:Bitstream Vera Sans"
             id="text22238"
             xml:space="preserve"><tspan
               x="365.31857"
               y="1054.8887"
               id="tspan22240">no transcription</tspan></text>
        </g>
      </g>
      <g
         transform="translate(-8.8491302,484.17572)"
         id="g42806">
        <path
           d="M -106.35576 94.687286 A 126.64731 126.64731 0 1 1  -359.65038,94.687286 A 126.64731 126.64731 0 1 1  -106.35576 94.687286 z"
           transform="matrix(0.291059,6.5922994e-2,-6.5922994e-2,0.291059,35.7201,785.6079)"
           style="fill:none;fill-opacity:1;fill-rule:evenodd;stroke:#000000;stroke-width:1;stroke-linecap:butt;stroke-linejoin:round;stroke-miterlimit:4;stroke-dasharray:none;stroke-dashoffset:0;stroke-opacity:0.99994058"
           id="path41812" />
        <path
           d="M -134.34412 94.687286 A 98.658951 98.658951 0 1 1  -331.66202,94.687286 A 98.658951 98.658951 0 1 1  -134.34412 94.687286 z"
           transform="matrix(-0.238223,-0.1042261,0.1042261,-0.238223,-103.71517,796.07889)"
           style="fill:none;fill-opacity:1;fill-rule:evenodd;stroke:#000000;stroke-width:1;stroke-linecap:butt;stroke-linejoin:round;stroke-miterlimit:4;stroke-dasharray:none;stroke-dashoffset:0;stroke-opacity:0.99994058"
           id="path41814" />
        <path
           d="M -20.478329,688.43964 L -18.42618,687.67091 L -18.774232,686.74178 C -18.903035,686.39793 -19.09162,686.16545 -19.339989,686.04436 C -19.58835,685.92327 -19.877143,685.92439 -20.206369,686.04771 C -20.533147,686.17013 -20.75038,686.35856 -20.858068,686.61303 C -20.965744,686.86749 -20.955182,687.16665 -20.826381,687.51051 L -20.478329,688.43964 M -20.808763,689.40603 L -21.433612,687.73797 C -21.6629,687.12587 -21.697008,686.61167 -21.535936,686.19537 C -21.378203,685.77756 -21.032305,685.46862 -20.49824,685.26855 C -19.959287,685.06667 -19.493105,685.0714 -19.099695,685.28276 C -18.707189,685.49169 -18.396292,685.9022 -18.167001,686.51431 L -17.818948,687.44345 L -15.624136,686.62128 L -15.347339,687.3602 L -20.808763,689.40603 M -20.735736,680.75224 C -20.772367,680.83811 -20.795121,680.93013 -20.804001,681.02831 C -20.815775,681.12423 -20.814647,681.22904 -20.800617,681.34276 C -20.750856,681.74596 -20.580769,682.03984 -20.290355,682.2244 C -20.002838,682.40671 -19.613548,682.46756 -19.122485,682.40696 L -16.835149,682.12468 L -16.746639,682.8419 L -21.0887,683.37774 L -21.17721,682.66053 L -20.50264,682.57728 C -20.78476,682.45991 -21.003976,682.28886 -21.160286,682.06412 C -21.319173,681.83971 -21.419829,681.55562 -21.462255,681.21188 C -21.46831,681.16277 -21.471131,681.10802 -21.470718,681.04761 C -21.47288,680.98753 -21.471968,680.92051 -21.467981,680.84655 L -20.735736,680.75224 M -18.964516,675.58717 L -18.615439,675.6289 L -19.0077,678.91022 C -18.512696,678.93793 -18.120142,678.83536 -17.830038,678.60252 C -17.54221,678.36679 -17.370012,678.01233 -17.313445,677.53914 C -17.280679,677.26505 -17.28261,676.99599 -17.319238,676.73196 C -17.355556,676.46535 -17.425799,676.19731 -17.529966,675.92782 L -16.855083,676.0085 C -16.777084,676.27748 -16.725714,676.54982 -16.700975,676.82554 C -16.676236,677.10126 -16.680404,677.37746 -16.713479,677.65413 C -16.796321,678.34712 -17.063695,678.87248 -17.515604,679.23022 C -17.967202,679.58538 -18.536907,679.72184 -19.224719,679.63962 C -19.935799,679.55462 -20.476619,679.29588 -20.847181,678.86342 C -21.220012,678.42807 -21.367481,677.88459 -21.28959,677.23298 C -21.219726,676.6486 -20.97579,676.20961 -20.55778,675.916 C -20.14204,675.61951 -19.610952,675.5099 -18.964516,675.58717 M -19.259277,676.2758 C -19.650341,676.2343 -19.975062,676.30695 -20.233439,676.49374 C -20.491501,676.67796 -20.641553,676.94589 -20.683595,677.29755 C -20.731195,677.69576 -20.65689,678.02855 -20.46068,678.29591 C -20.264154,678.5607 -19.963782,678.73561 -19.559563,678.82065 L -19.259277,676.2758 M -15.115219,673.08765 C -14.717393,673.48041 -14.483699,673.79672 -14.414136,674.03658 C -14.344577,674.27644 -14.37373,674.54463 -14.501595,674.84115 L -14.728973,675.36843 L -15.281364,675.13023 L -15.114311,674.74284 C -15.035942,674.5611 -15.018145,674.40145 -15.06092,674.26389 C -15.103699,674.12634 -15.259009,673.92749 -15.526851,673.66735 L -15.777111,673.41905 L -20.430629,673.33938 L -20.129006,672.63993 L -16.445459,672.73948 L -19.046254,670.12906 L -18.744631,669.4296 L -15.115219,673.08765 M -9.8840909,664.92187 L -10.870866,663.70536 L -11.871986,664.51742 L -12.280477,664.01383 L -10.672617,662.70961 L -9.0952532,664.65421 C -9.195722,665.01402 -9.3532668,665.35306 -9.5678881,665.67134 C -9.7841569,665.9876 -10.054087,666.27697 -10.377678,666.53945 C -11.085543,667.11363 -11.807031,667.35685 -12.542145,667.26909 C -13.276877,667.17767 -13.943639,666.76286 -14.542431,666.02465 C -15.142861,665.28444 -15.411197,664.54644 -15.347441,663.81067 C -15.283298,663.07125 -14.897297,662.41444 -14.189436,661.84025 C -13.894155,661.60074 -13.584515,661.40994 -13.260513,661.26783 C -12.934489,661.1241 -12.601812,661.03196 -12.262482,660.99143 L -11.733413,661.64367 C -12.115779,661.63529 -12.47375,661.6859 -12.807325,661.79552 C -13.140901,661.90516 -13.44825,662.07399 -13.729373,662.30201 C -14.283527,662.75152 -14.574654,663.24419 -14.602756,663.78001 C -14.628832,664.31421 -14.393331,664.8877 -13.896254,665.50051 C -13.400815,666.11129 -12.889057,666.45903 -12.360979,666.54371 C -11.83088,666.62676 -11.288753,666.44353 -10.734596,665.99402 C -10.518194,665.81849 -10.339814,665.64362 -10.199454,665.46941 C -10.06074,665.29318 -9.9556187,665.11067 -9.8840909,664.92187 M -6.1881438,661.64954 C -6.733774,661.84837 -7.0890622,662.04852 -7.2540097,662.24999 C -7.4189587,662.45146 -7.4465971,662.70266 -7.336925,663.00361 C -7.2495453,663.2434 -7.1017011,663.40571 -6.8933922,663.49056 C -6.6835303,663.57207 -6.4428034,663.56334 -6.1712108,663.46437 C -5.7968578,663.32795 -5.5452776,663.0866 -5.4164695,662.74031 C -5.2861115,662.3907 -5.3011785,661.99568 -5.4616707,661.55526 L -5.5165064,661.40478 L -6.1881438,661.64954 M -4.9428456,660.87976 L -4.0882106,663.22498 L -4.7635181,663.47107 L -4.9908858,662.84715 C -5.054088,663.15289 -5.1788403,663.40762 -5.3651433,663.61132 C -5.5523432,663.81258 -5.8123217,663.97384 -6.1450798,664.0951 C -6.565925,664.24847 -6.9439303,664.25318 -7.2790966,664.10923 C -7.6127093,663.96195 -7.8517379,663.69013 -7.9961831,663.29375 C -8.1647025,662.83131 -8.1376147,662.42647 -7.9149195,662.07924 C -7.6897777,661.73111 -7.2701379,661.44515 -6.6559988,661.22134 L -5.7091002,660.87628 L -5.7331744,660.81022 C -5.8464146,660.49948 -6.0365592,660.29715 -6.3036086,660.20321 C -6.5691063,660.10595 -6.886585,660.12463 -7.2560456,660.25927 C -7.4909357,660.34487 -7.7094543,660.45638 -7.911602,660.59379 C -8.11375,660.7312 -8.2970804,660.89364 -8.4615937,661.08108 L -8.6889614,660.45716 C -8.4766114,660.27168 -8.262686,660.11334 -8.0471845,659.98215 C -7.8325747,659.84851 -7.6151654,659.74157 -7.394956,659.66131 C -6.800393,659.44465 -6.3001322,659.43696 -5.8941721,659.63825 C -5.4882163,659.83956 -5.1711078,660.25339 -4.9428456,660.87976 M -3.3277207,656.96302 L -2.6154662,656.86661 L -1.8001649,662.8898 L -2.5124194,662.98621 L -3.3277207,656.96302 M 2.5006032,657.76209 L 0.25035324,660.69427 L 2.2352937,660.86404 L 2.5006032,657.76209 M 2.3529129,657.05944 L 3.3414911,657.144 L 3.0175938,660.93095 L 3.8465983,661.00186 L 3.7906736,661.65572 L 2.9616691,661.58481 L 2.8444935,662.95481 L 2.0621934,662.8879 L 2.179369,661.5179 L -0.44386606,661.29354 L -0.37895344,660.53459 L 2.3529129,657.05944 M 5.3757744,660.96209 L 7.3753121,661.62152 L 7.1746692,662.22992 L 5.1751316,661.57049 L 5.3757744,660.96209 M 12.002767,661.16715 L 9.5476851,663.0491 L 11.360672,664.19457 L 12.002767,661.16715 M 12.041506,660.27213 L 12.797742,660.74992 L 11.561691,666.86752 L 10.868199,666.42936 L 11.218194,664.88081 L 8.9957168,663.47662 L 7.7474839,664.45766 L 7.0440847,664.01324 L 12.041506,660.27213 M 16.881378,665.08332 L 13.290564,667.85346 L 13.872748,668.60812 C 14.364261,669.24525 14.868084,669.59989 15.38422,669.67205 C 15.901939,669.74627 16.472148,669.54319 17.094849,669.06282 C 17.713416,668.58561 18.051476,668.08801 18.109032,667.56999 C 18.170228,667.05244 17.955071,666.47511 17.463562,665.83798 L 16.881378,665.08332 M 16.912822,664.06248 L 17.903011,665.34602 C 18.593353,666.24089 18.913377,667.04156 18.863084,667.74804 C 18.814838,668.45293 18.394833,669.11078 17.603067,669.7216 C 16.807165,670.33559 16.060367,670.57623 15.36267,670.44351 C 14.664966,670.31079 13.972532,669.79906 13.285367,668.90832 L 12.295177,667.62478 L 16.912822,664.06248"
           transform="matrix(1.5012977,0.3400343,-0.3400343,1.5012977,192.63509,-222.98353)"
           style="font-size:8px;font-style:normal;font-variant:normal;font-weight:normal;font-stretch:normal;text-align:start;line-height:100%;writing-mode:lr-tb;text-anchor:start;fill:#000000;fill-opacity:1;stroke:none;stroke-width:1px;stroke-linecap:butt;stroke-linejoin:miter;stroke-opacity:1;font-family:Bitstream Vera Sans"
           id="text41816" />
        <path
           d="M -74.467039,808.95534 L -74.467039,808.95534 L -62.725563,806.24603"
           style="fill:none;fill-opacity:1;fill-rule:evenodd;stroke:#000000;stroke-width:0.30000001;stroke-linecap:butt;stroke-linejoin:miter;stroke-miterlimit:4;stroke-dasharray:none;stroke-opacity:1"
           id="path41820" />
        <path
           d="M -108.84916,217.22466 L -97.22209,213.88497"
           transform="translate(95.186806,573.75939)"
           style="fill:none;fill-rule:evenodd;stroke:#000000;stroke-width:0.30000001;stroke-linecap:butt;stroke-linejoin:miter;stroke-miterlimit:4;stroke-dasharray:none;stroke-opacity:1"
           id="path41833" />
        <path
           d="M -158.82082,195.82591 L -150.16236,204.36067"
           transform="translate(95.186806,573.75939)"
           style="fill:none;fill-rule:evenodd;stroke:#000000;stroke-width:0.30000001;stroke-linecap:butt;stroke-linejoin:miter;stroke-miterlimit:4;stroke-dasharray:none;stroke-opacity:1"
           id="path42804" />
      </g>
      <use
         transform="translate(-1.4876251,608.7446)"
         id="use45291"
         x="0"
         y="0"
         width="699.88043"
         height="730.02386"
         xlink:href="#path45279" />
    </g>
    <text
       x="68.115242"
       y="751.56763"
       style="font-size:18px;font-style:normal;font-variant:normal;font-weight:normal;font-stretch:normal;text-align:start;line-height:100%;writing-mode:lr-tb;text-anchor:start;fill:#000000;fill-opacity:1;stroke:none;stroke-width:1px;stroke-linecap:butt;stroke-linejoin:miter;stroke-opacity:1;font-family:Bitstream Vera Sans"
       id="text45491"
       xml:space="preserve"><tspan
         x="68.115242"
         y="751.56763"
         id="tspan45497">A. Regular transcription of the reporter gene</tspan></text>
    <text
       x="66.489265"
       y="987.87146"
       style="font-size:18px;font-style:normal;font-variant:normal;font-weight:normal;font-stretch:normal;text-align:start;line-height:100%;writing-mode:lr-tb;text-anchor:start;fill:#000000;fill-opacity:1;stroke:none;stroke-width:1px;stroke-linecap:butt;stroke-linejoin:miter;stroke-opacity:1;font-family:Bitstream Vera Sans"
       id="text45499"
       xml:space="preserve"><tspan
         x="66.489265"
         y="987.87146"
         id="tspan45501">B. One fusion protein only (Gal4-BD + Bait) - no transcription</tspan></text>
    <text
       x="67.245125"
       y="1237.0354"
       style="font-size:18px;font-style:normal;font-variant:normal;font-weight:normal;font-stretch:normal;text-align:start;line-height:100%;writing-mode:lr-tb;text-anchor:start;fill:#000000;fill-opacity:1;stroke:none;stroke-width:1px;stroke-linecap:butt;stroke-linejoin:miter;stroke-opacity:1;font-family:Bitstream Vera Sans"
       id="text45503"
       xml:space="preserve"><tspan
         x="67.245125"
         y="1237.0354"
         id="tspan45505">C. One fusion protein only (Gal4-AD + Prey) - no transcription</tspan></text>
    <text
       x="66.489265"
       y="1495.3392"
       style="font-size:18px;font-style:normal;font-variant:normal;font-weight:normal;font-stretch:normal;text-align:start;line-height:100%;writing-mode:lr-tb;text-anchor:start;fill:#000000;fill-opacity:1;stroke:none;stroke-width:1px;stroke-linecap:butt;stroke-linejoin:miter;stroke-opacity:1;font-family:Bitstream Vera Sans"
       id="text45507"
       xml:space="preserve"><tspan
         x="66.489265"
         y="1495.3392"
         id="tspan45509">D. Two fusion proteins with interacting Bait and Prey</tspan></text>
  </g>
</svg>
